<svg width="42" height="42" viewBox="0 0 42 42" fill="none" xmlns="http://www.w3.org/2000/svg">
<path d="M39.3359 0H2.66797C1.19531 0 0 1.19531 0 2.66797V39.332C0 40.8047 1.19531 42 2.66797 42H39.332C40.8047 42 42 40.8047 42 39.3359V2.66797C42 1.19531 40.8047 0 39.3359 0ZM23 32.1836C23 36.1797 20.6562 38 17.2344 38C14.1406 38 11.9102 35.9258 11 34L14.1445 32.0977C14.75 33.1719 15.6719 34 17 34C18.2695 34 19 33.5039 19 31.5742V19H23V32.1836ZM31.6758 38C28.1328 38 26.1211 36.2148 25 34L28 32C28.8164 33.3359 29.707 34.6133 31.5898 34.6133C33.1719 34.6133 34 33.8242 34 32.7305C34 31.4258 33.1406 30.9609 31.4023 30.1992L30.4492 29.7891C27.6953 28.6172 25.8633 27.1484 25.8633 24.0391C25.8633 21.1797 28.0469 19 31.4531 19C33.8789 19 35.6211 19.8438 36.8789 22.0547L33.9102 23.9648C33.2539 22.7891 32.5508 22.3281 31.4531 22.3281C30.3359 22.3281 29.6289 23.0391 29.6289 23.9648C29.6289 25.1094 30.3359 25.5703 31.9727 26.2812L32.9258 26.6914C36.1719 28.0781 38 29.4961 38 32.6836C38 36.1172 35.3008 38 31.6758 38Z" fill="black"/>
</svg>
