<svg width="800" height="800" viewBox="0 0 800 800" fill="none" xmlns="http://www.w3.org/2000/svg">
<path d="M800 265.469H0V364.572H800V265.469Z" fill="black"/>
<path d="M749.551 153.306H50.449C22.8571 153.306 0 176.163 0 203.755V232H800V203.755C800 176.163 777.143 153.306 749.551 153.306Z" fill="black"/>
<path d="M540.735 528.163H576.327L558.531 487.674L540.735 528.163Z" fill="black"/>
<path d="M0 384.49V596.245C0 623.837 22.8571 646.694 50.449 646.694H749.551C777.143 646.694 800 623.837 800 596.245V384.49H0ZM279.347 453.714L239.347 584.327C237.551 590.041 231.673 593.959 224.98 593.959C218.286 593.959 212.245 590.041 210.612 584.327L170.612 453.714C168.49 446.694 173.224 439.51 181.224 437.714C189.224 435.918 197.388 440 199.51 447.02L224.98 530.449L250.449 447.02C252.571 440 260.735 435.918 268.735 437.714C276.735 439.51 281.469 446.694 279.347 453.714ZM337.796 580.898C337.796 588.082 331.102 593.959 322.939 593.959C314.776 593.959 308.082 588.082 308.082 580.898V450.286C308.082 443.102 314.776 437.225 322.939 437.225C331.102 437.225 337.796 443.102 337.796 450.286V580.898ZM414.694 593.959C400.327 593.959 386.449 588.735 376.653 579.592C370.939 574.367 371.265 566.041 377.306 561.143C383.347 556.245 392.816 556.408 398.367 561.633C402.612 565.551 408.49 567.837 414.694 567.837C427.102 567.837 437.061 559.02 437.061 548.245C437.061 537.469 427.102 528.653 414.694 528.653C385.959 528.653 362.449 508.082 362.449 482.939C362.449 457.796 385.959 437.225 414.694 437.225C429.061 437.225 442.939 442.449 452.735 451.592C458.449 456.816 458.122 465.143 452.082 470.041C446.041 474.939 436.571 474.776 431.02 469.551C426.776 465.633 420.898 463.347 414.694 463.347C402.286 463.347 392.327 472.163 392.327 482.939C392.327 493.714 402.286 502.531 414.694 502.531C443.429 502.531 466.939 523.102 466.939 548.245C466.939 573.551 443.592 593.959 414.694 593.959ZM620.408 592.163C612.735 594.776 604.082 591.347 601.143 584.653L587.755 554.286H529.306L515.918 584.653C512.163 592.49 504.816 594.776 496.653 592.163C488.98 589.714 485.061 582.041 488 575.347L544.49 446.531C546.776 441.469 552.327 438.204 558.367 438.204C564.571 438.204 570.122 441.469 572.245 446.531L628.735 575.347C631.837 582.041 628.082 589.714 620.408 592.163Z" fill="black"/>
</svg>
