<svg width="800" height="800" viewBox="0 0 800 800" fill="none" xmlns="http://www.w3.org/2000/svg">
<path d="M787.175 604.094C787.175 626.884 768.528 645.531 745.738 645.531H54.261C31.4704 645.531 12.8235 626.884 12.8235 604.094V195.906C12.8235 173.116 31.4704 154.469 54.261 154.469H745.738C768.528 154.469 787.175 173.116 787.175 195.906V604.094Z" fill="#61B8CC"/>
<path d="M787.172 227.338H12.825V276.373H787.172V227.338Z" fill="#333E48"/>
<path d="M722.17 418.647C722.17 427.764 714.712 435.223 705.595 435.223H616.506C607.392 435.223 599.931 427.764 599.931 418.647V364.778C599.931 355.663 607.392 348.205 616.506 348.205H705.595C714.712 348.205 722.17 355.663 722.17 364.778V418.647Z" fill="#FED771"/>
<path d="M661.047 423.553C686.196 423.553 706.583 409.298 706.583 391.714C706.583 374.13 686.196 359.875 661.047 359.875C635.898 359.875 615.511 374.13 615.511 391.714C615.511 409.298 635.898 423.553 661.047 423.553Z" fill="#E5AB46"/>
<path d="M358.566 347.513H74.7156V435.93H358.566V347.513Z" fill="#99DAEA"/>
<path d="M282.109 507.133C271.084 507.133 263.541 514.602 263.541 524.35V524.492C263.541 534.095 270.584 540.286 281.184 540.286C286.522 540.286 290.361 538.008 292.853 535.023C292.567 544.197 288.158 550.673 280.828 550.673C277.411 550.673 274.639 549.678 271.72 547.614C271.009 547.186 270.227 546.903 269.3 546.903C267.022 546.903 265.173 548.611 265.173 550.887C265.173 552.522 265.955 553.733 267.164 554.514C270.864 557.005 274.989 558.642 280.609 558.642C294.055 558.642 301.953 547.545 301.953 531.536V531.392C301.953 521.573 299.605 516.097 295.977 512.398C292.428 508.911 288.373 507.133 282.109 507.133ZM292.569 523.994C292.569 528.831 288.798 532.956 282.467 532.956C276.277 532.956 272.294 529.259 272.294 524.066V523.923C272.294 518.8 275.992 514.675 282.183 514.675C288.514 514.675 292.569 518.659 292.569 523.85V523.994ZM91.7172 507.345H91.575C90.2938 507.345 89.0125 507.631 87.3047 508.128L79.7641 510.545C77.9844 511.042 76.8469 512.466 76.8469 514.316C76.8469 516.308 78.6266 518.016 80.6891 518.016C81.1172 518.016 81.7562 517.942 82.2531 517.802L87.3781 516.236V553.8C87.3781 556.222 89.3703 558.139 91.7172 558.139C94.1375 558.139 96.0563 556.22 96.0563 553.8V511.683C96.0578 509.266 94.2078 507.345 91.7172 507.345ZM225.619 531.962C229.817 529.756 232.875 526.414 232.875 520.866V520.722C232.875 513.039 225.548 507.278 215.587 507.278C205.627 507.278 198.3 513.112 198.3 520.722V520.866C198.3 526.414 201.361 529.758 205.556 531.962C199.936 534.311 196.591 538.08 196.591 544.056V544.197C196.591 552.806 204.703 558.498 215.586 558.498C226.472 558.498 234.581 552.948 234.581 544.056V543.912C234.583 538.009 231.097 534.451 225.619 531.962ZM206.694 521.505C206.694 517.733 210.252 514.602 215.587 514.602C220.925 514.602 224.481 517.733 224.481 521.573V521.716C224.481 525.986 220.711 529.044 215.587 529.044C210.464 529.044 206.694 525.984 206.694 521.647V521.505ZM226.045 543.7C226.045 547.828 222.133 551.17 215.587 551.17C209.042 551.17 205.2 547.756 205.2 543.7V543.558C205.2 539.005 209.681 536.019 215.587 536.019C221.494 536.019 226.045 539.005 226.045 543.558V543.7ZM745.739 141.644H54.2609C24.3406 141.644 0 165.984 0 195.906V604.094C0 634.014 24.3406 658.355 54.2609 658.355H745.738C775.656 658.355 799.998 634.014 799.998 604.094V195.906C800 165.984 775.658 141.644 745.739 141.644ZM774.352 604.094C774.352 619.872 761.517 632.706 745.739 632.706H54.2609C38.4844 632.706 25.6484 619.87 25.6484 604.094V289.205H774.35L774.352 604.094ZM774.352 263.556H25.6484V240.169H774.35L774.352 263.556ZM774.352 214.52H25.6484V195.906C25.6484 180.128 38.4828 167.294 54.2609 167.294H745.738C761.516 167.294 774.35 180.13 774.35 195.906L774.352 214.52ZM169.269 507.133C158.244 507.133 150.7 514.602 150.7 524.35V524.492C150.7 534.095 157.744 540.286 168.344 540.286C173.681 540.286 177.52 538.008 180.013 535.023C179.727 544.197 175.317 550.673 167.988 550.673C164.573 550.673 161.798 549.678 158.88 547.614C158.169 547.186 157.386 546.903 156.459 546.903C154.181 546.903 152.333 548.611 152.333 550.887C152.333 552.522 153.116 553.733 154.323 554.514C158.023 557.005 162.148 558.642 167.769 558.642C181.214 558.642 189.112 547.545 189.112 531.536V531.392C189.112 521.573 186.767 516.097 183.136 512.398C179.584 508.911 175.531 507.133 169.269 507.133ZM179.727 523.994C179.727 528.831 175.956 532.956 169.625 532.956C163.434 532.956 159.452 529.259 159.452 524.066V523.923C159.452 518.8 163.15 514.675 169.341 514.675C175.672 514.675 179.727 518.659 179.727 523.85V523.994ZM138.889 550.103H118.684L128.928 541.566C137.75 534.383 141.878 530.112 141.878 522.286V522.145C141.878 513.252 135.191 507.278 125.444 507.278C117.617 507.278 112.994 510.267 108.939 515.316C108.298 516.098 107.944 517.094 107.944 518.02C107.944 520.225 109.72 522.003 111.928 522.003C113.352 522.003 114.348 521.364 114.988 520.65C118.047 516.953 120.822 515.103 124.806 515.103C129.359 515.103 132.845 517.947 132.845 522.858C132.845 527.337 130.355 530.539 123.527 536.302L108.231 549.32C106.737 550.53 105.953 551.953 105.953 553.662C105.953 556.223 107.947 557.787 110.648 557.787H138.891C141.025 557.787 142.731 556.081 142.731 553.947C142.728 551.811 141.022 550.103 138.889 550.103ZM557.245 553.234C561.3 556.364 566.422 558.641 573.181 558.641C583.852 558.641 591.392 551.881 591.392 541.781V541.637C591.392 531.108 583.78 525.986 574.034 525.986C570.689 525.986 568.486 526.553 566.136 527.411L566.919 515.742H585.63C587.764 515.742 589.542 514.036 589.542 511.902C589.542 509.769 587.764 507.989 585.63 507.989H563.077C560.941 507.989 559.233 509.625 559.091 511.902L558.023 529.828C557.952 531.466 558.448 532.745 559.73 533.669C561.436 534.88 562.505 535.376 563.858 535.376C565.209 535.376 567.556 533.669 572.394 533.669C578.442 533.669 582.709 536.802 582.709 541.919V542.062C582.709 547.33 578.655 550.672 573.034 550.672C569.122 550.672 565.636 549.248 562.22 546.472C561.509 545.906 560.727 545.62 559.659 545.62C557.383 545.62 555.461 547.542 555.461 549.817C555.466 551.242 556.178 552.38 557.245 553.234ZM402.569 557.786H430.813C432.947 557.786 434.655 556.08 434.655 553.945C434.655 551.811 432.947 550.103 430.813 550.103H410.608L420.852 541.566C429.673 534.383 433.802 530.112 433.802 522.286V522.145C433.802 513.252 427.114 507.278 417.367 507.278C409.541 507.278 404.917 510.267 400.863 515.314C400.222 516.097 399.867 517.092 399.867 518.019C399.867 520.223 401.644 522.001 403.852 522.001C405.275 522.001 406.269 521.362 406.911 520.648C409.972 516.952 412.745 515.102 416.73 515.102C421.283 515.102 424.769 517.945 424.769 522.856C424.769 527.336 422.28 530.537 415.45 536.3L400.155 549.319C398.661 550.528 397.878 551.951 397.878 553.661C397.873 556.223 399.866 557.786 402.569 557.786ZM616.506 448.047H705.595C721.806 448.047 734.994 434.858 734.994 418.647V364.778C734.994 348.567 721.805 335.381 705.595 335.381H616.506C600.295 335.381 587.108 348.57 587.108 364.778V418.647C587.108 434.858 600.295 448.047 616.506 448.047ZM612.756 364.778C612.756 362.745 614.473 361.03 616.506 361.03H705.595C707.628 361.03 709.345 362.747 709.345 364.778V418.647C709.345 420.68 707.628 422.398 705.595 422.398H616.506C614.473 422.398 612.756 420.68 612.756 418.647V364.778ZM528.855 558.498C539.741 558.498 547.85 552.948 547.85 544.056V543.912C547.85 538.008 544.366 534.451 538.886 531.961C543.084 529.755 546.142 526.412 546.142 520.864V520.72C546.142 513.037 538.814 507.277 528.855 507.277C518.894 507.277 511.567 513.111 511.567 520.72V520.864C511.567 526.412 514.627 529.756 518.822 531.961C513.202 534.309 509.858 538.078 509.858 544.055V544.195C509.859 552.806 517.97 558.498 528.855 558.498ZM519.961 521.505C519.961 517.733 523.519 514.602 528.855 514.602C534.191 514.602 537.748 517.733 537.748 521.573V521.716C537.748 525.986 533.978 529.044 528.855 529.044C523.731 529.044 519.961 525.984 519.961 521.647V521.505ZM518.467 543.558C518.467 539.005 522.95 536.019 528.855 536.019C534.759 536.019 539.313 539.005 539.313 543.558V543.7C539.313 547.828 535.4 551.17 528.855 551.17C522.309 551.17 518.467 547.756 518.467 543.7V543.558ZM481.612 540.286C486.948 540.286 490.789 538.008 493.28 535.023C492.994 544.197 488.584 550.673 481.258 550.673C477.841 550.673 475.07 549.678 472.15 547.614C471.439 547.186 470.656 546.903 469.73 546.903C467.453 546.903 465.603 548.611 465.603 550.887C465.603 552.522 466.384 553.733 467.595 554.514C471.295 557.005 475.42 558.642 481.041 558.642C494.487 558.642 502.384 547.545 502.384 531.536V531.392C502.384 521.573 500.036 516.097 496.408 512.398C492.852 508.912 488.795 507.133 482.534 507.133C471.509 507.133 463.966 514.602 463.966 524.35V524.492C463.967 534.097 471.012 540.286 481.612 540.286ZM472.72 523.922C472.72 518.798 476.419 514.673 482.609 514.673C488.941 514.673 492.995 518.658 492.995 523.848V523.992C492.995 528.83 489.223 532.955 482.894 532.955C476.703 532.955 472.72 529.258 472.72 524.064V523.922ZM637.142 539.431H633.3V511.472C633.3 509.123 631.38 507.275 629.031 507.275C626.47 507.275 625.259 508.27 623.692 510.12L600.286 537.867C599.005 539.359 598.366 540.783 598.366 542.489C598.366 544.906 600.286 546.616 602.634 546.616H624.902V554.014C624.902 556.362 626.753 558.141 629.102 558.141C631.45 558.141 633.298 556.362 633.298 554.014V546.616H637.141C639.205 546.616 640.769 545.052 640.769 543.059C640.77 541.067 639.206 539.431 637.142 539.431ZM624.905 539.431H608.542L624.905 519.727V539.431ZM356.319 511.828C356.319 513.892 358.027 515.598 360.161 515.598H378.231L366.563 528.048C365.211 529.401 364.713 530.469 364.713 531.603C364.713 533.667 366.419 535.375 368.484 535.375H370.263C377.236 535.375 381.717 538.15 381.717 543.058V543.2C381.717 547.753 378.017 550.742 373.108 550.742C368.484 550.742 364.928 549.106 361.797 545.973C361.086 545.336 360.161 544.837 358.88 544.837C356.603 544.837 354.681 546.758 354.681 549.031C354.681 550.316 355.32 551.522 356.105 552.164C360.161 556.077 365.639 558.637 372.967 558.637C383.353 558.637 390.397 552.02 390.397 542.844V542.702C390.397 533.522 383.281 529.68 375.741 528.756L387.48 516.592C388.973 515.098 389.969 513.889 389.969 511.825C389.969 509.476 388.117 507.984 385.63 507.984H360.159C358.028 507.987 356.319 509.694 356.319 511.828ZM338.459 531.962C342.658 529.756 345.716 526.414 345.716 520.866V520.722C345.716 513.039 338.389 507.278 328.428 507.278C318.467 507.278 311.141 513.112 311.141 520.722V520.866C311.141 526.414 314.202 529.758 318.397 531.962C312.777 534.311 309.431 538.08 309.431 544.056V544.197C309.431 552.806 317.544 558.498 328.427 558.498C339.312 558.498 347.422 552.948 347.422 544.056V543.912C347.425 538.009 343.937 534.451 338.459 531.962ZM319.537 521.505C319.537 517.733 323.094 514.602 328.43 514.602C333.767 514.602 337.323 517.733 337.323 521.573V521.716C337.323 525.986 333.553 529.044 328.43 529.044C323.306 529.044 319.537 525.984 319.537 521.647V521.505ZM338.886 543.7C338.886 547.828 334.973 551.17 328.428 551.17C321.883 551.17 318.042 547.756 318.042 543.7V543.558C318.042 539.005 322.523 536.019 328.428 536.019C334.334 536.019 338.886 539.005 338.886 543.558V543.7ZM74.7156 448.748H358.559C365.642 448.748 371.384 443.008 371.384 435.923V347.506C371.384 340.422 365.642 334.681 358.559 334.681H74.7156C67.6328 334.681 61.8906 340.422 61.8906 347.506V435.923C61.8906 443.006 67.6328 448.748 74.7156 448.748ZM87.5406 360.33H345.734V423.098H87.5406V360.33Z" fill="#1E252B"/>
</svg>
