<svg width="800" height="800" viewBox="0 0 800 800" fill="none" xmlns="http://www.w3.org/2000/svg">
<path d="M800 612.258C800 627.742 788.387 639.355 772.903 639.355H27.0968C11.6129 639.355 0 627.742 0 612.258V186.452C0 170.968 11.6129 159.355 27.0968 159.355H772.903C788.387 159.355 800 170.968 800 186.452V612.258Z" fill="#12DB55"/>
<path d="M800 612.258C800 627.742 788.387 639.355 772.903 639.355H27.0968C11.6129 639.355 0 627.742 0 612.258V186.452C0 170.968 11.6129 159.355 27.0968 159.355H772.903C788.387 159.355 800 170.968 800 186.452V612.258Z" fill="#12DB55"/>
<path d="M0 186.452C0 170.968 11.6129 159.355 27.0968 159.355H772.903C788.387 159.355 800 170.968 800 186.452V613.548C800 629.032 788.387 640.645 772.903 640.645" fill="#0AC945"/>
<path d="M800 191.613H0V347.742H800V191.613Z" fill="#334449"/>
<path d="M274.839 347.742H800V191.613H9.03223L274.839 347.742Z" fill="black"/>
<path d="M800 612.258C800 627.742 788.387 639.355 772.903 639.355H27.0968C11.6129 639.355 0 627.742 0 612.258" fill="#0CC69A"/>
<path d="M772.903 639.355C788.387 639.355 800 627.742 800 612.258H727.742L772.903 639.355Z" fill="#0BAF84"/>
<path d="M286.452 426.452C286.452 431.613 282.581 435.484 277.419 435.484H85.1614C80.0001 435.484 76.1292 431.613 76.1292 426.452C76.1292 421.29 80.0001 417.419 85.1614 417.419H277.419C282.581 417.419 286.452 421.29 286.452 426.452Z" fill="#D4F9ED"/>
<path d="M286.452 472.903C286.452 478.065 282.581 481.935 277.419 481.935H85.1614C80.0001 481.935 76.1292 478.065 76.1292 472.903C77.4195 467.742 81.2904 463.871 85.1614 463.871H277.419C282.581 463.871 286.452 467.742 286.452 472.903Z" fill="#D4F9ED"/>
<path d="M249.032 519.355C249.032 524.516 245.161 528.387 240 528.387H85.1614C81.2904 528.387 77.4194 524.516 77.4194 519.355C77.4194 514.193 81.2904 510.323 86.4517 510.323H241.29C245.161 511.613 249.032 515.484 249.032 519.355Z" fill="#D4F9ED"/>
<path d="M580.645 581.29C634.092 581.29 677.419 537.963 677.419 484.516C677.419 431.069 634.092 387.742 580.645 387.742C527.198 387.742 483.871 431.069 483.871 484.516C483.871 537.963 527.198 581.29 580.645 581.29Z" fill="#FFBC00"/>
<path d="M580.645 387.742C531.613 387.742 491.613 423.871 483.871 470.323L640 561.935C663.226 543.871 677.419 516.774 677.419 484.516C678.71 430.323 634.839 387.742 580.645 387.742Z" fill="#FFAA00"/>
<path d="M580.645 387.742C634.839 387.742 677.419 431.613 677.419 484.516C677.419 537.419 633.548 581.29 580.645 581.29" fill="#F7B208"/>
<path d="M658.064 581.29C711.511 581.29 754.839 537.963 754.839 484.516C754.839 431.069 711.511 387.742 658.064 387.742C604.618 387.742 561.29 431.069 561.29 484.516C561.29 537.963 604.618 581.29 658.064 581.29Z" fill="#F20A41"/>
<path d="M658.064 581.29C711.511 581.29 754.839 537.963 754.839 484.516C754.839 431.069 711.511 387.742 658.064 387.742C604.618 387.742 561.29 431.069 561.29 484.516C561.29 537.963 604.618 581.29 658.064 581.29Z" fill="#F20A41"/>
<path d="M658.064 582.581C603.871 582.581 561.29 538.71 561.29 485.806C561.29 432.903 605.161 389.032 658.064 389.032" fill="#E00040"/>
<path d="M619.355 395.484C584.516 410.968 561.29 444.516 561.29 484.516C561.29 524.516 585.806 559.355 619.355 573.548C654.194 558.065 677.419 524.516 677.419 484.516C677.419 444.516 654.194 409.677 619.355 395.484Z" fill="#F97803"/>
<path d="M619.355 573.548C654.194 558.065 677.419 524.516 677.419 484.516C677.419 444.516 652.903 409.677 619.355 395.484" fill="#F76806"/>
</svg>
