<svg xmlns="http://www.w3.org/2000/svg" data-name="Layer 1" viewBox="0 0 100 100" id="credit-score"><path fill="#86d1f5" d="M76.77,46a32,32,0,0,1,5.52,16.63H94.07A43.62,43.62,0,0,0,86.22,38.9Z"></path><path fill="#333" d="M88.55,37.16h0l-.76-1-.1-.14h0a47,47,0,0,0-74.95-.58h0l-.43.58-.23.32-.63.85h0A46.61,46.61,0,0,0,3,64v1.45H20.59V64a29.12,29.12,0,0,1,5.8-17.53h0a29.42,29.42,0,0,1,47.22,0l0,0A29.23,29.23,0,0,1,79.42,64v1.46H97V64A46.59,46.59,0,0,0,88.55,37.16ZM82.29,62.58A32,32,0,0,0,76.77,46l9.45-7.05a43.62,43.62,0,0,1,7.85,23.68Zm-76.36,0a43.83,43.83,0,0,1,7.84-23.69l9.45,7a31.94,31.94,0,0,0-5.51,16.64Zm19-19-9.44-7a44.09,44.09,0,0,1,69,0l-9.44,7A32.32,32.32,0,0,0,25,43.6Z"></path><path fill="#50b792" d="M75.05,43.6l9.44-7a44.09,44.09,0,0,0-69,0l9.44,7a32.32,32.32,0,0,1,50.09,0Z"></path><path fill="#ec6568" d="M23.22,45.94l-9.45-7A43.83,43.83,0,0,0,5.93,62.58H17.71A31.94,31.94,0,0,1,23.22,45.94Z"></path><path fill="#fecb37" d="M50,49.87a16,16,0,0,0-16,16h9.75a6.42,6.42,0,0,1-.89-3.23,7.18,7.18,0,0,1,6.31-6.82V53h2.91v2.82a7.15,7.15,0,0,1,6.11,6.79h-2.9c0-2.22-2.14-4-4.76-4s-4.76,1.81-4.76,4a3.88,3.88,0,0,0,1.93,3.23H66A16,16,0,0,0,50,49.87Z"></path><path fill="#333" d="M53.62,47.32l8-6.61-1.85-2.24L49.44,47A18.89,18.89,0,0,0,31.13,65.84H34a16,16,0,0,1,31.94,0h2.91A18.9,18.9,0,0,0,53.62,47.32Z"></path><path fill="#333" d="M45.8,62.61c0-2.22,2.14-4,4.76-4s4.76,1.81,4.76,4h2.9a7.15,7.15,0,0,0-6.11-6.79V53H49.2v2.79a7.18,7.18,0,0,0-6.31,6.82,6.42,6.42,0,0,0,.89,3.23,7.74,7.74,0,0,0,6,3.68v0c2.78,0,5,1.92,5,4.28s-2.26,4.29-5,4.29-5.05-1.92-5.05-4.29H41.78c0,3.81,3.29,6.93,7.42,7.18V83h2.91V80.71a7.33,7.33,0,0,0,5.58-6.87c0-3.71-3.13-6.78-7.13-7.15v0a5.3,5.3,0,0,1-2.83-.81A3.88,3.88,0,0,1,45.8,62.61Z"></path></svg>