<svg width="40" height="60" viewBox="0 0 40 60" fill="none" xmlns="http://www.w3.org/2000/svg">
<path d="M21.571 48.8C21.4447 49.1182 21.1956 50.0392 21.161 50.2471C21.0289 51.0424 20.8077 52.3733 20.919 52.8122C21.0566 53.3545 21.3631 53.9134 21.9966 54.1505C22.6301 54.3876 23.5072 54.2191 23.8176 53.7232L23.8404 53.6867L23.8524 53.8628C23.8888 54.3982 24.4884 55.2256 24.77 55.4285C24.9066 55.5342 25.0767 55.6091 25.2625 55.6454C25.4483 55.6818 25.6431 55.6784 25.8266 55.6355C26.1918 55.5299 26.4121 55.2427 26.5924 54.9714C26.8144 54.5991 26.9649 54.2029 27.0392 53.7958" fill="white"/>
<path d="M26.6163 53.7957C26.6075 53.8579 26.6255 53.7654 26.6098 53.8315C26.6018 53.8652 26.5944 53.8992 26.5856 53.9328C26.5653 54.0113 26.5411 54.0891 26.5149 54.1666C26.4621 54.322 26.3995 54.4751 26.3271 54.6255C26.3201 54.6403 26.2828 54.7142 26.2948 54.6916C26.3068 54.6689 26.271 54.7333 26.2637 54.7455C26.2252 54.8095 26.1821 54.8719 26.1378 54.9334C26.0602 55.0579 25.9521 55.169 25.8198 55.2605C25.8095 55.2673 25.7049 55.3161 25.6922 55.3193C25.6696 55.3254 25.6468 55.33 25.624 55.335C25.626 55.335 25.5518 55.3445 25.5878 55.3411C25.5857 55.3411 25.4922 55.3411 25.4569 55.3389C25.5081 55.343 25.3776 55.3235 25.3603 55.3195C25.3337 55.3142 25.3077 55.3072 25.2825 55.2986C25.2057 55.2715 25.1343 55.2357 25.0706 55.1924C25.0352 55.1661 25.0045 55.1367 24.972 55.1089C24.9211 55.0647 25.011 55.1542 24.9638 55.1007C24.9411 55.0748 24.9172 55.0494 24.8948 55.0231C24.8008 54.9125 24.7145 54.7978 24.6365 54.6798C24.5428 54.5443 24.4633 54.403 24.3989 54.2573C24.3659 54.1827 24.3365 54.1069 24.313 54.0302C24.3019 53.994 24.2934 53.9576 24.2841 53.9212C24.2826 53.9163 24.2742 53.8655 24.2803 53.9056C24.2871 53.9492 24.2772 53.8625 24.2772 53.8629C24.2746 53.775 24.2291 53.6913 24.1502 53.6291C24.0712 53.567 23.9648 53.5311 23.8532 53.5291C23.741 53.5299 23.6337 53.5653 23.5544 53.6277C23.4751 53.6901 23.4301 53.7746 23.4292 53.8629C23.4781 54.2343 23.6189 54.5945 23.8438 54.9233C23.9963 55.1973 24.2085 55.4482 24.471 55.6646C24.6792 55.8263 24.9435 55.9359 25.2306 55.9796C25.5177 56.0233 25.8148 55.9991 26.0846 55.9102C26.5273 55.7497 26.8246 55.3841 27.0173 55.0447C27.2472 54.649 27.3978 54.2278 27.4639 53.7959C27.4632 53.7075 27.4184 53.6229 27.339 53.5605C27.2596 53.498 27.1522 53.4626 27.04 53.4621C26.9283 53.464 26.8219 53.4998 26.7429 53.562C26.6639 53.6242 26.6185 53.7079 26.616 53.7959L26.6163 53.7957Z" fill="#E2E1E3"/>
<path d="M24.2776 51.2317C24.2417 51.8971 24.0492 52.5515 23.71 53.1616C23.6196 53.3569 23.4902 53.5395 23.3266 53.7026C23.2102 53.7914 23.0684 53.8568 22.9131 53.8934C22.7579 53.93 22.5937 53.9367 22.4345 53.9128C22.2492 53.8793 22.0764 53.8119 21.9302 53.7163C21.7839 53.6206 21.6682 53.4993 21.5923 53.362C21.4981 53.2139 21.426 53.0576 21.3777 52.8964C21.3644 52.8555 21.3521 52.8144 21.3409 52.7731C21.348 52.7994 21.3121 52.6494 21.3254 52.7188C21.3363 52.7761 21.3215 52.6817 21.3215 52.68C21.3189 52.6479 21.3164 52.6159 21.315 52.5838C21.2855 51.9175 21.4231 51.2389 21.5303 50.5799C21.5437 50.4971 21.5577 50.4144 21.5711 50.3316C21.5934 50.1952 21.5611 50.3757 21.5766 50.3009C21.5814 50.2774 21.5863 50.254 21.5916 50.2314C21.6236 50.0884 21.6623 49.9463 21.6996 49.8043C21.7821 49.4984 21.8637 49.1892 21.9799 48.8898C22.1398 48.4782 21.3215 48.3021 21.1622 48.7124C20.9448 49.293 20.7894 49.8868 20.6975 50.4878C20.6332 50.8793 20.5716 51.2713 20.5248 51.6643C20.4705 52.0013 20.4533 52.3414 20.4735 52.6807C20.5527 53.4456 21.0973 54.3138 22.0988 54.5363C22.5792 54.64 23.0919 54.5952 23.5317 54.4111C23.8888 54.2428 24.1696 53.9902 24.3343 53.6892C24.8222 52.9252 25.0922 52.0864 25.1255 51.2317C25.1307 50.802 24.2827 50.8017 24.2776 51.2317Z" fill="#E2E1E3"/>
<path d="M23.3949 51.6767C24.1337 52.4032 24.7535 53.2 25.2398 54.0482C25.8063 55.0368 26.0957 55.8313 26.6895 56.5032C27.4182 57.5521 29.7104 58.4317 31.7469 59.6371C32.5965 59.9617 39.7975 57.4269 39.573 56.4458C39.573 56.4458 39.5516 56.2837 39.5406 56.2574C37.664 51.4108 38.1627 48.5894 35.4723 43.9985C35.1628 43.4659 34.6294 43.0337 33.962 42.7747C31.8904 41.9787 30.105 41.7666 28.037 40.9569C27.8619 40.8883 27.6877 40.8184 27.5145 40.747C26.9594 40.5189 25.7784 40.6522 24.9018 40.7222V44.8764C25.1781 44.8638 25.4552 44.8796 25.7263 44.9233C25.8861 44.9444 26.0409 44.9843 26.1856 45.0416C26.3167 45.1101 26.4338 45.1939 26.5328 45.2901C27.3724 46.0424 28.3527 46.6895 29.4401 47.2092C29.2302 47.5071 29.0241 47.8067 28.8218 48.108L28.4487 48.5785L28.2003 48.5443C25.3384 48.2779 23.0467 46.6452 20.5804 45.4729C19.8585 45.1296 18.9046 44.8254 18.2338 45.2758C18.0951 45.3743 17.9837 45.4942 17.9066 45.628C17.8294 45.7619 17.7881 45.9069 17.7853 46.0539C17.7579 46.5848 18.0934 47.0506 18.4656 47.4723C20.0516 49.2685 21.6575 49.9697 23.3944 51.6773" fill="white"/>
<path d="M5.21424 34.9C5.2024 37.8064 5.19233 37.7769 5.19233 38.1784C5.19233 39.3694 5.17961 46.4482 5.17237 48.5207C5.17138 48.7306 5.27621 48.9323 5.46387 49.0814C5.65152 49.2306 5.90666 49.3151 6.17333 49.3163C8.56019 49.3291 13.0334 49.3598 14.0617 49.3598C15.6372 49.3598 21.6603 49.3708 24.4978 49.3737C24.6302 49.3739 24.7614 49.3536 24.8839 49.3138C25.0063 49.2741 25.1176 49.2157 25.2114 49.1421C25.3052 49.0685 25.3796 48.9811 25.4305 48.8848C25.4813 48.7885 25.5076 48.6853 25.5077 48.5811C25.5118 46.3687 25.5277 40.5171 25.5431 34.913" fill="white"/>
<path d="M8.9373 34.8636C8.9373 36.0578 8.93077 37.2806 8.93077 38.4031C8.93077 40.0048 8.90745 49.1774 8.89844 49.0523" fill="white"/>
<path d="M11.5032 34.8636C11.5032 36.0578 11.4969 37.2806 11.4969 38.4031C11.4969 40.0048 11.4735 49.1774 11.4644 49.0523" fill="white"/>
<path d="M8.932 34.8636C8.932 36.0578 8.92547 37.2806 8.92547 38.4031C8.92547 39.7461 8.90904 47.4651 8.89844 49.3326C9.76743 49.3378 10.6615 49.3434 11.4648 49.348C11.4752 47.4984 11.4916 39.7497 11.4916 38.4036C11.4916 37.281 11.4982 36.0582 11.4982 34.8641" fill="#E2E1E3"/>
<path d="M4.80805 34.808C4.80805 35.7659 4.80187 36.7238 4.79763 37.6817C4.79056 39.3125 4.7832 40.9434 4.77555 42.5741C4.76848 44.0866 4.76153 45.5991 4.7547 47.1117C4.75258 47.5694 4.74569 48.0273 4.74887 48.485C4.74208 48.7484 4.85097 49.0055 5.05715 49.2131C5.26333 49.4206 5.55417 49.5658 5.88056 49.6241C6.17709 49.6555 6.47671 49.6652 6.77552 49.653L7.67066 49.6583C9.83351 49.6712 11.9965 49.6928 14.1594 49.6932C16.3064 49.6937 18.4532 49.6966 20.5999 49.7018C21.7613 49.7036 22.9226 49.7053 24.084 49.7068C24.3696 49.7251 24.657 49.7072 24.9353 49.6535C25.2802 49.565 25.5707 49.3784 25.7499 49.1301C25.9554 48.8381 25.9324 48.5182 25.9326 48.1984C25.9334 46.8686 25.9325 45.5388 25.9297 44.209C25.9276 42.4859 25.9252 40.7627 25.9223 39.0394C25.9203 37.7575 25.9186 36.4755 25.917 35.1934C25.917 35.0426 25.917 34.8919 25.917 34.7413C25.917 34.3118 25.0691 34.3112 25.0691 34.7413C25.0691 35.7622 25.0704 36.783 25.0729 37.8036C25.0754 39.4577 25.0779 41.1117 25.0804 42.7658C25.0822 44.2695 25.0838 45.7733 25.085 47.277C25.085 47.5387 25.085 47.8003 25.085 48.0618C25.1059 48.268 25.1011 48.4754 25.0706 48.6809C24.9542 49.1165 24.3216 49.0397 23.8985 49.0391L22.2501 49.0369C19.9064 49.0335 17.5631 49.0301 15.2202 49.0266C13.3796 49.0247 11.539 49.0144 9.69819 49.0033L7.78849 48.9916L6.8824 48.9863C6.62485 48.9962 6.36678 48.9943 6.10951 48.9806C5.99916 48.969 5.89519 48.9332 5.80949 48.8773C5.72378 48.8214 5.65982 48.7476 5.62493 48.6644C5.59391 48.5571 5.58473 48.4467 5.59773 48.3371C5.59843 48.1292 5.59926 47.9212 5.6002 47.7132C5.60609 46.3436 5.61233 44.9741 5.61892 43.6045C5.62658 41.9585 5.63412 40.3124 5.64154 38.6663C5.6466 37.5039 5.65125 36.3414 5.65549 35.1789C5.65549 35.0553 5.65549 34.9318 5.65549 34.8082C5.65549 34.3786 4.80752 34.3779 4.80752 34.8082L4.80805 34.808Z" fill="#E2E1E3"/>
<path d="M32.0733 47.3822C31.3684 47.4485 30.7445 47.679 30.1058 47.9097C29.5435 48.1129 28.9817 48.2907 28.3634 48.2266C28.2512 48.2271 28.1437 48.2624 28.0643 48.3249C27.9849 48.3874 27.9401 48.472 27.9395 48.5604C27.9422 48.6482 27.9877 48.7319 28.0667 48.794C28.1456 48.8561 28.2518 48.892 28.3634 48.8941C29.0508 48.9655 29.7089 48.7756 30.3265 48.5604C30.8856 48.3657 31.4633 48.1076 32.0733 48.0501C32.1847 48.0475 32.2907 48.0116 32.3695 47.9495C32.4483 47.8875 32.494 47.8041 32.4973 47.7164C32.4966 47.628 32.4517 47.5435 32.3723 47.481C32.293 47.4185 32.1855 47.3832 32.0733 47.3826V47.3822Z" fill="#E2E1E3"/>
<path d="M29.9958 45.7781C29.4603 46.4884 28.9475 47.2089 28.4573 47.9395C28.4015 48.0158 28.3864 48.1065 28.4151 48.1916C28.4439 48.2768 28.5143 48.3495 28.6109 48.394C28.7076 48.4384 28.8226 48.451 28.931 48.4289C29.0393 48.4069 29.1322 48.352 29.1894 48.2763C29.6795 47.546 30.1924 46.8256 30.7279 46.1151C30.7847 46.0386 30.8005 45.9476 30.772 45.862C30.7435 45.7763 30.673 45.7031 30.5759 45.6584C30.4788 45.6138 30.3632 45.6013 30.2544 45.6237C30.1456 45.6461 30.0526 45.7017 29.9958 45.7781Z" fill="#E2E1E3"/>
<path d="M29.5555 46.8732C28.904 46.5557 28.2934 46.1889 27.7324 45.778C27.4497 45.5703 27.1798 45.3524 26.9183 45.1283C26.7804 44.9974 26.6228 44.8801 26.4491 44.779C26.261 44.6915 26.0543 44.6316 25.8391 44.6022C25.7307 44.5806 25.616 44.5928 25.5187 44.6363C25.4215 44.6797 25.3494 44.751 25.3174 44.8353C25.2888 44.9207 25.3038 45.0114 25.3592 45.0881C25.4146 45.1649 25.5059 45.2215 25.6137 45.2458C25.7703 45.2602 25.9199 45.3049 26.0491 45.376C26.1893 45.4816 26.3222 45.593 26.4473 45.7098C26.7091 45.9295 26.9803 46.1425 27.2635 46.3453C27.8414 46.7569 28.4653 47.1266 29.1276 47.45C29.5921 47.678 30.0182 47.1007 29.5557 46.8736L29.5555 46.8732Z" fill="#E2E1E3"/>
<path d="M25.8376 40.9815C26.2847 40.9521 26.8173 40.8948 27.2498 41.0196C27.4657 41.082 27.687 41.1925 27.9015 41.2751C28.1552 41.3729 28.4121 41.4651 28.6722 41.5517C29.6469 41.8777 30.6556 42.1259 31.6555 42.3978C32.1514 42.5327 32.6448 42.674 33.1269 42.8383C33.5804 42.9694 34.0045 43.1566 34.3831 43.3928C34.7075 43.626 34.9659 43.9103 35.1417 44.2272C35.3604 44.6016 35.5652 44.9807 35.756 45.3647C36.4085 46.7071 36.9094 48.0922 37.2528 49.5039C37.5966 50.8616 37.8605 52.2311 38.229 53.585C38.441 54.3653 38.685 55.1405 38.9668 55.9074C39.0051 56.0117 39.044 56.1158 39.0837 56.2198C39.0998 56.2615 39.1191 56.3032 39.1323 56.3463C39.1524 56.4079 39.1245 56.2993 39.1371 56.3611C39.1484 56.4175 39.1579 56.4773 39.1641 56.534C39.1491 56.3969 39.1551 56.4923 39.1516 56.5253C39.1645 56.4042 39.1609 56.4741 39.1459 56.5099C39.1166 56.5794 39.2019 56.4481 39.1517 56.501C39.1093 56.5452 39.0779 56.5983 39.0364 56.6445C39.1173 56.5556 39.0344 56.6434 39.0118 56.6635C38.9862 56.6863 38.9588 56.7086 38.9325 56.7304C38.8618 56.787 38.7887 56.8406 38.7129 56.8923C38.6776 56.9165 38.6415 56.9403 38.6046 56.9638C38.5822 56.9777 38.4727 57.0459 38.5477 57.0003C38.444 57.0632 38.3377 57.1235 38.2297 57.1822C37.7679 57.4297 37.289 57.6568 36.7951 57.8624C35.7601 58.3062 34.6835 58.6871 33.5747 59.0018C33.1593 59.1248 32.7333 59.2243 32.2998 59.2995C32.2528 59.307 31.9995 59.329 32.1606 59.3206C32.0919 59.3243 32.024 59.3294 31.9551 59.3315C31.931 59.3291 31.9067 59.3282 31.8823 59.3288C31.8424 59.3354 32.0028 59.3505 31.9134 59.3302C31.8037 59.3052 32.0664 59.4265 31.8958 59.3102C31.7845 59.2344 31.6548 59.1705 31.5354 59.103C30.6962 58.6302 29.8197 58.201 28.9712 57.7392C28.341 57.396 27.6347 57.0138 27.1991 56.5176C26.7365 55.9536 26.3543 55.3511 26.0596 54.7211C25.6728 53.936 25.1949 53.1807 24.632 52.4647C24.342 52.1109 24.029 51.7692 23.6943 51.4408C23.6144 51.3784 23.5065 51.3435 23.394 51.3435C23.2815 51.3435 23.1736 51.3784 23.0937 51.4408C23.0166 51.5044 22.9736 51.5889 22.9736 51.6768C22.9736 51.7647 23.0166 51.8492 23.0937 51.9128C23.7727 52.5873 24.3479 53.3227 24.8073 54.1036C25.2313 54.8209 25.5337 55.5847 26.0158 56.2803C26.4048 56.8501 26.9366 57.3519 27.5791 57.7553C28.374 58.256 29.2374 58.6819 30.0827 59.1258C30.5512 59.3718 31.0093 59.6277 31.4663 59.8866C31.6171 59.9679 31.7978 60.0073 31.9802 59.9989C32.3834 59.9803 32.7813 59.9175 33.1624 59.8122C34.3202 59.5227 35.4454 59.158 36.5266 58.7218C37.5226 58.3324 38.561 57.9034 39.3893 57.3095C39.6699 57.1083 39.966 56.8496 39.996 56.5372C39.9987 56.5179 40 56.4984 40.0001 56.4788C40.0001 56.4712 39.9981 56.4638 39.9976 56.4563L39.9824 56.3676C39.9942 56.4442 39.997 56.4592 39.9909 56.4126C39.9598 56.2228 39.9055 56.0358 39.8289 55.8542C39.6799 55.4546 39.5408 55.0529 39.4116 54.649C38.5011 51.8037 38.1926 48.8529 36.9813 46.0666C36.6509 45.2679 36.2489 44.4887 35.7782 43.7349C35.5575 43.3959 35.2518 43.0956 34.8797 42.8521C34.4522 42.5946 33.9797 42.387 33.4769 42.2356C32.4766 41.8983 31.4405 41.6431 30.4132 41.3636C29.8924 41.2218 29.3739 41.0726 28.8698 40.8971C28.6097 40.8066 28.3537 40.7095 28.0995 40.6093C27.8658 40.5015 27.6175 40.4145 27.3593 40.35C26.8573 40.2735 26.3429 40.2612 25.836 40.3138C25.7244 40.3159 25.6182 40.3518 25.5392 40.4139C25.4603 40.476 25.4148 40.5597 25.412 40.6475C25.4129 40.7358 25.4578 40.8203 25.5371 40.8827C25.6165 40.9452 25.7238 40.9806 25.836 40.9813L25.8376 40.9815Z" fill="#E2E1E3"/>
<path d="M23.3954 51.6767C21.6586 49.9691 20.0528 49.2679 18.4666 47.4717C18.0943 47.0502 17.7589 46.5845 17.7862 46.0533C17.7891 45.9063 17.8304 45.7613 17.9075 45.6275C17.9847 45.4936 18.0961 45.3737 18.2348 45.2752C18.9061 44.8248 19.8601 45.129 20.5814 45.4723C23.0477 46.6446 25.3401 48.2773 28.2012 48.5437" fill="white"/>
<path d="M23.6952 51.4403C22.8131 50.578 21.7786 49.841 20.7757 49.0686C20.2795 48.6921 19.8117 48.2931 19.3748 47.8735C18.9508 47.4606 18.4644 46.9936 18.2768 46.4744C18.1284 46.0641 18.2212 45.5187 18.8347 45.4002C19.4023 45.2906 20.0286 45.5963 20.4897 45.8188C21.6606 46.3836 22.7649 47.0287 23.9374 47.5919C25.2544 48.2238 26.658 48.7274 28.2014 48.8773C28.3137 48.8768 28.4212 48.8415 28.5006 48.779C28.58 48.7165 28.6248 48.6319 28.6254 48.5435C28.6227 48.4557 28.5772 48.372 28.4983 48.3099C28.4193 48.2477 28.313 48.2119 28.2014 48.2098C25.3091 47.9287 23.1069 46.2275 20.6798 45.1302C20.0717 44.8552 19.3506 44.6283 18.6397 44.7508C17.8778 44.8819 17.411 45.4397 17.3644 46.0271C17.3167 46.6305 17.7 47.1885 18.1249 47.6671C18.5797 48.1776 19.0837 48.6597 19.6323 49.1094C20.7806 50.0534 22.0508 50.8904 23.0949 51.9122C23.1748 51.9743 23.2825 52.0091 23.3947 52.0091C23.5069 52.0091 23.6146 51.9743 23.6945 51.9122C23.7716 51.8487 23.8147 51.7642 23.8147 51.6762C23.8147 51.5883 23.7716 51.5038 23.6945 51.4403H23.6952Z" fill="#E2E1E3"/>
<path d="M1.95782 0.421352C2.16347 0.371813 2.37733 0.346645 2.59239 0.346674C8.18598 0.34431 21.8381 0.336105 27.578 0.333741C28.1809 0.333371 28.7593 0.521394 29.1862 0.856508C29.6131 1.19162 29.8536 1.64642 29.8548 2.12101C29.8737 8.27062 29.9546 27.0533 29.9739 32.9772C29.9755 33.3785 29.7966 33.7673 29.469 34.0747C29.1413 34.3821 28.686 34.5883 28.1838 34.6567C28.129 34.6641 2.79343 34.7614 2.73124 34.7616H2.70739C2.4079 34.7623 2.11116 34.7165 1.83421 34.6268C1.55726 34.537 1.30555 34.4051 1.09352 34.2386C0.881485 34.0721 0.71331 33.8743 0.598639 33.6565C0.483968 33.4387 0.42506 33.2052 0.425294 32.9695C0.426884 26.9951 0.43289 8.13002 0.434303 2.04633C0.434102 1.68283 0.581963 1.32885 0.856176 1.03637C1.13039 0.7439 1.5165 0.528342 1.95782 0.421352Z" fill="white"/>
<path d="M4.65286 4.11108C4.65286 5.73815 4.65057 8.04482 4.65039 9.79079C4.65032 9.83357 4.66098 9.87594 4.68175 9.91547C4.70252 9.955 4.73299 9.99092 4.77143 10.0212C4.80986 10.0514 4.8555 10.0754 4.90573 10.0917C4.95596 10.108 5.00979 10.1164 5.06413 10.1163C7.6787 10.1148 21.906 10.1067 25.1349 10.1059C25.1891 10.1059 25.2429 10.0975 25.293 10.0811C25.3431 10.0647 25.3887 10.0407 25.427 10.0105C25.4653 9.9802 25.4957 9.94429 25.5163 9.90478C25.537 9.86527 25.5475 9.82294 25.5474 9.78022C25.5474 7.71913 25.5412 5.57127 25.5405 4.1293C25.5406 4.08663 25.53 4.04435 25.5093 4.00491C25.4886 3.96546 25.4583 3.92962 25.4199 3.89944C25.3816 3.86925 25.3361 3.84533 25.286 3.82903C25.2359 3.81272 25.1822 3.80437 25.128 3.80444C21.8684 3.80305 8.14703 3.7879 5.06696 3.78623C5.01264 3.78608 4.95883 3.79437 4.9086 3.81063C4.85836 3.82689 4.8127 3.8508 4.77423 3.88098C4.73576 3.91116 4.70524 3.94702 4.68441 3.98651C4.66358 4.02599 4.65286 4.06833 4.65286 4.11108Z" fill="#BCE2EF"/>
<path d="M4.65145 12.8121C4.65145 13.3979 4.65145 13.8446 4.65039 14.4797C4.65023 14.5225 4.6608 14.565 4.68151 14.6045C4.70221 14.6441 4.73264 14.6801 4.77104 14.7104C4.80945 14.7407 4.85508 14.7648 4.90531 14.7812C4.95554 14.7976 5.0094 14.806 5.06378 14.806C6.03841 14.8049 8.48657 14.8019 9.67991 14.8013C9.73419 14.8012 9.78792 14.7927 9.83803 14.7763C9.88814 14.7599 9.93364 14.7358 9.97194 14.7056C10.0102 14.6753 10.0406 14.6394 10.0612 14.5999C10.0819 14.5603 10.0924 14.518 10.0922 14.4753C10.0922 13.7161 10.0922 13.3187 10.0922 12.8204C10.0924 12.7341 10.0491 12.6512 9.97168 12.59C9.8943 12.5289 9.78923 12.4944 9.67956 12.4942C8.4712 12.4928 6.19935 12.4869 5.06519 12.4855C5.01076 12.4855 4.95686 12.494 4.90659 12.5104C4.85631 12.5268 4.81064 12.5508 4.77221 12.5812C4.73377 12.6115 4.70332 12.6475 4.68259 12.6871C4.66187 12.7268 4.65129 12.7692 4.65145 12.8121Z" fill="#E2E2E2"/>
<path d="M12.3787 12.8121C12.3787 13.3979 12.3776 13.8446 12.3774 14.4797C12.3773 14.5226 12.3879 14.565 12.4086 14.6046C12.4293 14.6442 12.4597 14.6802 12.4982 14.7105C12.5366 14.7408 12.5822 14.7648 12.6325 14.7812C12.6827 14.7976 12.7366 14.806 12.791 14.806C13.7655 14.8049 16.2138 14.8019 17.407 14.8013C17.4612 14.8012 17.515 14.7927 17.5651 14.7763C17.6152 14.7599 17.6607 14.7359 17.6991 14.7056C17.7374 14.6753 17.7677 14.6394 17.7884 14.5999C17.809 14.5603 17.8196 14.518 17.8195 14.4753C17.8195 13.7161 17.8195 13.3187 17.8195 12.8204C17.8197 12.7341 17.7764 12.6512 17.699 12.59C17.6217 12.5289 17.5166 12.4944 17.407 12.4942C16.1984 12.4928 13.9268 12.4869 12.7924 12.4855C12.738 12.4855 12.6841 12.4939 12.6338 12.5103C12.5835 12.5267 12.5378 12.5508 12.4994 12.5811C12.4609 12.6115 12.4305 12.6475 12.4098 12.6871C12.3891 12.7268 12.3785 12.7692 12.3787 12.8121Z" fill="#E2E2E2"/>
<path d="M20.106 12.8121C20.106 13.3979 20.1052 13.8446 20.105 14.4797C20.1048 14.5225 20.1154 14.565 20.1361 14.6045C20.1568 14.6441 20.1872 14.6801 20.2256 14.7104C20.264 14.7407 20.3097 14.7648 20.3599 14.7812C20.4101 14.7976 20.464 14.806 20.5184 14.806C21.493 14.8049 23.9412 14.8019 25.1345 14.8013C25.1888 14.8012 25.2425 14.7927 25.2926 14.7763C25.3427 14.7599 25.3882 14.7358 25.4265 14.7056C25.4648 14.6753 25.4952 14.6394 25.5158 14.5999C25.5364 14.5603 25.547 14.518 25.5468 14.4753C25.5468 13.7161 25.5468 13.3187 25.5468 12.8204C25.547 12.7341 25.5037 12.6512 25.4263 12.59C25.3489 12.5289 25.2438 12.4944 25.1342 12.4942C23.9258 12.4928 21.6539 12.4869 20.5198 12.4855C20.4654 12.4855 20.4115 12.494 20.3612 12.5104C20.3109 12.5268 20.2652 12.5508 20.2268 12.5812C20.1884 12.6115 20.1579 12.6475 20.1372 12.6871C20.1165 12.7268 20.1059 12.7692 20.106 12.8121Z" fill="#E2E2E2"/>
<path d="M4.65145 16.5453C4.65145 17.1312 4.65145 17.5778 4.65039 18.2129C4.65023 18.2558 4.6608 18.2982 4.68151 18.3378C4.70221 18.3773 4.73264 18.4133 4.77104 18.4436C4.80945 18.4739 4.85508 18.498 4.90531 18.5144C4.95554 18.5308 5.0094 18.5392 5.06378 18.5392C6.03841 18.5381 8.48657 18.5352 9.67991 18.5346C9.7342 18.5345 9.78793 18.526 9.83804 18.5096C9.88815 18.4932 9.93366 18.4691 9.97195 18.4388C10.0102 18.4085 10.0406 18.3726 10.0612 18.3331C10.0819 18.2936 10.0924 18.2512 10.0922 18.2085C10.0922 17.4493 10.0922 17.0519 10.0922 16.5536C10.0924 16.4673 10.0491 16.3844 9.97168 16.3233C9.8943 16.2621 9.78923 16.2276 9.67956 16.2274C8.4712 16.226 6.19935 16.2201 5.06519 16.2188C5.01076 16.2187 4.95686 16.2272 4.90659 16.2436C4.85631 16.26 4.81064 16.2841 4.77221 16.3144C4.73377 16.3447 4.70332 16.3807 4.68259 16.4204C4.66187 16.46 4.65129 16.5024 4.65145 16.5453Z" fill="#E2E2E2"/>
<path d="M12.3787 16.5453C12.3787 17.1312 12.3776 17.5778 12.3774 18.2129C12.3773 18.2558 12.3879 18.2982 12.4086 18.3378C12.4293 18.3774 12.4597 18.4134 12.4982 18.4437C12.5366 18.474 12.5822 18.498 12.6325 18.5144C12.6827 18.5308 12.7366 18.5392 12.791 18.5392C13.7655 18.5381 16.2138 18.5352 17.407 18.5346C17.4613 18.5345 17.515 18.526 17.5651 18.5096C17.6152 18.4932 17.6608 18.4691 17.6991 18.4388C17.7374 18.4086 17.7677 18.3726 17.7884 18.3331C17.809 18.2936 17.8196 18.2512 17.8195 18.2085C17.8195 17.4493 17.8195 17.0519 17.8195 16.5536C17.8197 16.4673 17.7764 16.3844 17.699 16.3233C17.6217 16.2621 17.5166 16.2276 17.407 16.2274C16.1984 16.226 13.9268 16.2201 12.7924 16.2188C12.738 16.2187 12.6841 16.2271 12.6338 16.2435C12.5835 16.26 12.5378 16.284 12.4994 16.3144C12.4609 16.3447 12.4305 16.3807 12.4098 16.4203C12.3891 16.46 12.3785 16.5024 12.3787 16.5453Z" fill="#E2E2E2"/>
<path d="M20.106 16.5453C20.106 17.1312 20.1052 17.5778 20.105 18.2129C20.1048 18.2558 20.1154 18.2982 20.1361 18.3378C20.1568 18.3773 20.1872 18.4133 20.2256 18.4436C20.264 18.4739 20.3097 18.498 20.3599 18.5144C20.4101 18.5308 20.464 18.5392 20.5184 18.5392C21.493 18.5381 23.9412 18.5352 25.1345 18.5346C25.1888 18.5345 25.2425 18.526 25.2926 18.5096C25.3427 18.4932 25.3882 18.4691 25.4265 18.4388C25.4648 18.4085 25.4952 18.3726 25.5158 18.3331C25.5364 18.2936 25.547 18.2512 25.5468 18.2085C25.5468 17.4493 25.5468 17.0519 25.5468 16.5536C25.547 16.4673 25.5037 16.3844 25.4263 16.3233C25.3489 16.2621 25.2438 16.2276 25.1342 16.2274C23.9258 16.226 21.6539 16.2201 20.5198 16.2188C20.4654 16.2187 20.4115 16.2272 20.3612 16.2436C20.3109 16.26 20.2652 16.2841 20.2268 16.3144C20.1884 16.3447 20.1579 16.3807 20.1372 16.4204C20.1165 16.46 20.1059 16.5024 20.106 16.5453Z" fill="#E2E2E2"/>
<path d="M4.65145 20.2581C4.65145 20.8439 4.65145 21.2906 4.65039 21.9257C4.65023 21.9685 4.6608 22.011 4.68151 22.0505C4.70221 22.0901 4.73264 22.1261 4.77104 22.1564C4.80945 22.1867 4.85508 22.2108 4.90531 22.2272C4.95554 22.2436 5.0094 22.252 5.06378 22.252C6.03841 22.2507 8.48657 22.2479 9.67991 22.2473C9.73419 22.2472 9.78792 22.2387 9.83803 22.2223C9.88814 22.2059 9.93364 22.1818 9.97194 22.1516C10.0102 22.1213 10.0406 22.0854 10.0612 22.0459C10.0819 22.0063 10.0924 21.964 10.0922 21.9213C10.0922 21.1621 10.0922 20.7647 10.0922 20.2664C10.0925 20.18 10.0491 20.0972 9.97174 20.036C9.89436 19.9747 9.78926 19.9402 9.67956 19.94C8.4712 19.9388 6.19935 19.9329 5.06519 19.9314C5.01075 19.9314 4.95685 19.9399 4.90657 19.9563C4.8563 19.9727 4.81063 19.9968 4.7722 20.0271C4.73376 20.0575 4.70331 20.0935 4.68259 20.1331C4.66187 20.1728 4.65129 20.2152 4.65145 20.2581Z" fill="#E2E2E2"/>
<path d="M12.3787 20.2581C12.3787 20.8439 12.3776 21.2906 12.3774 21.9257C12.3773 21.9686 12.3879 22.011 12.4086 22.0506C12.4293 22.0902 12.4597 22.1262 12.4982 22.1565C12.5366 22.1868 12.5822 22.2108 12.6325 22.2272C12.6827 22.2436 12.7366 22.252 12.791 22.252C13.7655 22.2507 16.2138 22.2479 17.407 22.2473C17.4612 22.2472 17.515 22.2387 17.5651 22.2223C17.6152 22.2059 17.6607 22.1819 17.6991 22.1516C17.7374 22.1213 17.7677 22.0854 17.7884 22.0459C17.809 22.0063 17.8196 21.964 17.8195 21.9213C17.8195 21.1621 17.8195 20.7647 17.8195 20.2664C17.8197 20.1801 17.7764 20.0972 17.699 20.036C17.6217 19.9748 17.5166 19.9403 17.407 19.94C16.1984 19.9388 13.9268 19.9329 12.7924 19.9314C12.738 19.9314 12.6841 19.9398 12.6338 19.9562C12.5835 19.9727 12.5378 19.9967 12.4994 20.0271C12.4609 20.0574 12.4305 20.0935 12.4098 20.1331C12.3891 20.1727 12.3785 20.2152 12.3787 20.2581Z" fill="#E2E2E2"/>
<path d="M12.3787 24.2294C12.3787 24.8152 12.3776 25.2619 12.3774 25.897C12.3773 25.9399 12.3879 25.9823 12.4086 26.0219C12.4293 26.0615 12.4597 26.0975 12.4981 26.1278C12.5366 26.1581 12.5822 26.1822 12.6325 26.1986C12.6827 26.215 12.7366 26.2234 12.791 26.2234C13.7655 26.2222 16.2138 26.2192 17.407 26.2187C17.4613 26.2186 17.515 26.2101 17.5651 26.1937C17.6152 26.1773 17.6608 26.1532 17.6991 26.1229C17.7374 26.0926 17.7677 26.0567 17.7884 26.0172C17.809 25.9777 17.8196 25.9353 17.8195 25.8926C17.8195 25.1334 17.8195 24.736 17.8195 24.2377C17.8197 24.1514 17.7764 24.0685 17.699 24.0073C17.6217 23.9462 17.5166 23.9117 17.407 23.9115C16.1984 23.9101 13.9268 23.9042 12.7924 23.9028C12.738 23.9028 12.6841 23.9112 12.6338 23.9276C12.5835 23.944 12.5378 23.9681 12.4994 23.9984C12.4609 24.0288 12.4305 24.0648 12.4098 24.1044C12.3891 24.144 12.3785 24.1865 12.3787 24.2294Z" fill="#E2E2E2"/>
<path d="M12.3787 28.0159C12.3787 28.6018 12.3776 29.0485 12.3774 29.6836C12.3772 29.7265 12.3877 29.7689 12.4084 29.8086C12.4291 29.8482 12.4595 29.8842 12.4979 29.9146C12.5363 29.9449 12.582 29.969 12.6322 29.9854C12.6825 30.0019 12.7364 30.0103 12.7908 30.0103C13.7653 30.0092 16.2136 30.0062 17.4068 30.0056C17.4611 30.0055 17.5148 29.997 17.5649 29.9806C17.6151 29.9642 17.6606 29.9402 17.6989 29.9099C17.7372 29.8796 17.7675 29.8437 17.7882 29.8042C17.8089 29.7646 17.8194 29.7223 17.8193 29.6796C17.8193 28.9204 17.8193 28.523 17.8193 28.0247C17.8195 27.9384 17.7762 27.8555 17.6989 27.7944C17.6215 27.7332 17.5164 27.6987 17.4068 27.6985C16.1983 27.6971 13.9266 27.6912 12.7922 27.6897C12.7379 27.6897 12.684 27.6981 12.6338 27.7145C12.5835 27.7309 12.5379 27.755 12.4995 27.7853C12.4611 27.8156 12.4306 27.8516 12.4099 27.8911C12.3892 27.9307 12.3786 27.9731 12.3787 28.0159Z" fill="#E2E2E2"/>
<path d="M20.106 20.2581C20.106 20.8439 20.1052 21.2906 20.105 21.9257C20.1048 21.9685 20.1154 22.011 20.1361 22.0505C20.1568 22.0901 20.1872 22.1261 20.2256 22.1564C20.264 22.1867 20.3097 22.2108 20.3599 22.2272C20.4101 22.2436 20.464 22.252 20.5184 22.252C21.493 22.2507 23.9412 22.2479 25.1345 22.2473C25.1888 22.2472 25.2425 22.2387 25.2926 22.2223C25.3427 22.2059 25.3882 22.1818 25.4265 22.1516C25.4648 22.1213 25.4952 22.0854 25.5158 22.0459C25.5364 22.0063 25.547 21.964 25.5468 21.9213C25.5468 21.1621 25.5468 20.7647 25.5468 20.2664C25.5471 20.18 25.5037 20.0972 25.4263 20.036C25.3489 19.9747 25.2438 19.9402 25.1342 19.94C23.9258 19.9388 21.6539 19.9329 20.5198 19.9314C20.4653 19.9314 20.4114 19.9399 20.3612 19.9563C20.3109 19.9727 20.2652 19.9968 20.2268 20.0271C20.1884 20.0575 20.1579 20.0935 20.1372 20.1331C20.1165 20.1728 20.1059 20.2152 20.106 20.2581Z" fill="#E2E2E2"/>
<path d="M4.65163 24.2288C4.65163 25.4796 4.65057 28.2895 4.65039 29.5714C4.65025 29.6142 4.66085 29.6566 4.68158 29.6962C4.70232 29.7357 4.73277 29.7716 4.7712 29.8019C4.80963 29.8322 4.85527 29.8562 4.90551 29.8725C4.95575 29.8888 5.0096 29.8972 5.06395 29.8971C6.03841 29.8959 8.48675 29.8931 9.67991 29.8924C9.73414 29.8925 9.78785 29.8841 9.83796 29.8678C9.88807 29.8515 9.9336 29.8275 9.97193 29.7973C10.0103 29.7671 10.0406 29.7313 10.0613 29.6918C10.082 29.6524 10.0926 29.6101 10.0924 29.5674V24.2273C10.0924 24.1845 10.0816 24.1422 10.0608 24.1027C10.0399 24.0632 10.0094 24.0274 9.97095 23.9972C9.93249 23.967 9.88685 23.9431 9.83664 23.9268C9.78643 23.9105 9.73263 23.9022 9.67832 23.9023H5.06572C5.01128 23.9023 4.95738 23.9107 4.90709 23.9271C4.8568 23.9436 4.81112 23.9676 4.77266 23.998C4.7342 24.0283 4.70371 24.0643 4.68295 24.1039C4.66218 24.1435 4.65154 24.186 4.65163 24.2288Z" fill="#E2E2E2"/>
<path d="M20.106 24.2288C20.106 25.4796 20.1052 28.2895 20.105 29.5714C20.1048 29.6142 20.1154 29.6566 20.1361 29.6961C20.1568 29.7357 20.1873 29.7716 20.2257 29.8019C20.2641 29.8322 20.3097 29.8562 20.36 29.8725C20.4102 29.8888 20.464 29.8972 20.5184 29.8971C21.4928 29.8959 23.9412 29.8931 25.1345 29.8924C25.1887 29.8924 25.2424 29.8841 25.2925 29.8677C25.3426 29.8514 25.3881 29.8275 25.4264 29.7973C25.4647 29.7671 25.4951 29.7312 25.5157 29.6918C25.5364 29.6523 25.547 29.6101 25.5468 29.5674V24.2273C25.5468 24.1845 25.5361 24.1422 25.5152 24.1027C25.4944 24.0632 25.4639 24.0274 25.4254 23.9972C25.387 23.967 25.3413 23.9431 25.2911 23.9268C25.2409 23.9105 25.187 23.9022 25.1327 23.9023H20.5201C20.4657 23.9023 20.4118 23.9107 20.3615 23.9271C20.3112 23.9436 20.2655 23.9676 20.2271 23.998C20.1886 24.0283 20.1581 24.0643 20.1374 24.1039C20.1166 24.1435 20.1059 24.186 20.106 24.2288Z" fill="#E2E2E2"/>
<path d="M2.06977 0.743304C2.62642 0.618145 3.28201 0.680168 3.85863 0.67989L5.61834 0.679056L9.82639 0.676831L19.2919 0.671685L27.2349 0.667513C27.531 0.653937 27.828 0.674884 28.1164 0.729676C28.4436 0.808362 28.737 0.956456 28.9644 1.15772C29.194 1.36055 29.3467 1.61004 29.4051 1.8778C29.4338 2.0597 29.4424 2.2432 29.4309 2.42627C29.4333 3.15099 29.4358 3.87561 29.4385 4.60014C29.4454 6.53602 29.4527 8.4719 29.4606 10.4078C29.4696 12.7017 29.4787 14.9955 29.488 17.2893C29.4973 19.592 29.5066 21.8948 29.5159 24.1975C29.5237 26.1544 29.5313 28.1114 29.5387 30.0686C29.5415 30.8143 29.5442 31.5601 29.5468 32.306C29.5482 32.6676 29.6037 33.061 29.4631 33.409C29.3577 33.6635 29.1593 33.8879 28.8928 34.0542C28.7667 34.1328 28.6274 34.1974 28.4789 34.2462C28.4036 34.2697 28.3263 34.2892 28.2477 34.3046C28.2053 34.3134 28.0728 34.3292 28.1811 34.3228C27.9714 34.3352 27.7571 34.326 27.546 34.3272C27.0056 34.3299 26.4652 34.3325 25.9246 34.3348C24.1534 34.3428 22.3822 34.3502 20.611 34.3572C18.3861 34.3665 16.1613 34.3754 13.9364 34.384L7.65012 34.4086L3.48764 34.4248C3.24032 34.4258 2.99299 34.4276 2.74567 34.4276C2.33102 34.4355 1.92497 34.3337 1.59254 34.1385C1.2601 33.9432 1.02051 33.6658 0.912112 33.3506C0.856515 33.1514 0.835125 32.9472 0.848515 32.7435C0.848515 31.1618 0.848986 29.5802 0.849928 27.9986C0.850635 25.8645 0.851282 23.7303 0.851871 21.5961L0.853991 14.5792C0.854698 12.3829 0.855345 10.1867 0.855934 7.99069C0.855934 6.28482 0.856405 4.57896 0.857348 2.87309C0.857348 2.55713 0.834205 2.2345 0.863707 1.91938C0.896406 1.65187 1.02811 1.39779 1.2425 1.18863C1.45688 0.979478 1.74452 0.824445 2.06977 0.742748C2.58703 0.611887 2.36585 -0.0329585 1.84435 0.0995708C1.43661 0.20009 1.06611 0.377266 0.764861 0.615784C0.463616 0.854301 0.240698 1.14698 0.115374 1.46853C-0.0383205 1.87182 0.00937781 2.31391 0.00937781 2.73124V5.03305C0.00937781 7.04885 0.00878894 9.06451 0.0076112 11.08L0.0049613 18.0992L0.00284137 25.023C0.00284137 26.9427 0.00225251 28.8625 0.00107477 30.7824V32.8805C-0.00970791 33.1858 0.0607429 33.4895 0.207903 33.7721C0.355062 34.0547 0.575678 34.3099 0.855581 34.5214C1.36757 34.8928 2.03923 35.0978 2.73542 35.0951C3.52792 35.0951 4.3206 35.0891 5.1131 35.086L10.595 35.0646C12.8704 35.0553 15.1458 35.0464 17.4212 35.0376C19.5111 35.0293 21.6009 35.0207 23.6907 35.0119C25.0073 35.0064 26.324 35.0004 27.6408 34.9941C27.9196 35.0064 28.1992 34.991 28.4731 34.9484C28.8755 34.8625 29.246 34.7021 29.5536 34.4806C29.8613 34.2591 30.0972 33.9828 30.2416 33.6749C30.4388 33.2616 30.3966 32.8143 30.3951 32.3816C30.3892 30.6994 30.3829 29.0172 30.3762 27.335C30.3676 25.1284 30.3589 22.9219 30.3499 20.7154C30.3404 18.3438 30.3308 15.9722 30.3213 13.6004C30.3125 11.4199 30.3039 9.23945 30.2955 7.05909C30.2895 5.44371 30.2836 3.82837 30.2778 2.21309C30.2881 1.90808 30.2173 1.60476 30.0701 1.3225C29.9229 1.04025 29.7025 0.785292 29.423 0.573922C28.8259 0.139065 28.1044 0 27.3122 0L23.7241 0.00180785C20.6384 0.00338392 17.5528 0.00505271 14.4671 0.0068142L5.4461 0.0115424L3.73091 0.0125159C3.11012 0.0125159 2.4457 -0.036296 1.84435 0.0995708C1.32073 0.217915 1.54332 0.862205 2.06977 0.743304Z" fill="#E2E1E3"/>
<path d="M26.185 32.6443C23.4827 32.6517 20.7804 32.6606 18.0781 32.671C15.0977 32.6817 12.1173 32.6924 9.13677 32.7032C7.66837 32.7083 6.19991 32.7129 4.73139 32.7171C4.18586 32.7186 4.18462 33.3861 4.73139 33.3846C7.488 33.3765 10.2446 33.3672 13.0012 33.3568C15.9663 33.3459 18.9315 33.3353 21.8968 33.3249C23.3262 33.32 24.7556 33.3154 26.185 33.311C26.7306 33.3095 26.7316 32.642 26.185 32.6435V32.6443Z" fill="#E2E1E3"/>
<path d="M4.22867 4.11106C4.22867 5.22275 4.22814 6.33444 4.22708 7.44613C4.22708 8.02937 4.22708 8.61265 4.22708 9.19599C4.22708 9.44756 4.17019 9.75378 4.27001 9.99533C4.32871 10.1292 4.43942 10.2452 4.58647 10.3268C4.73352 10.4084 4.90945 10.4515 5.08936 10.4501C6.31803 10.4823 7.55571 10.4487 8.78492 10.448L14.6575 10.4447L20.7074 10.4416C22.1157 10.4409 23.5242 10.4402 24.9327 10.4396C25.1443 10.4541 25.357 10.4241 25.5491 10.3527C25.9268 10.1859 25.9719 9.88812 25.9717 9.5805C25.9717 8.9166 25.971 8.25271 25.9697 7.58881C25.9681 6.45153 25.9865 5.31314 25.965 4.17601C25.9732 4.02999 25.9214 3.88578 25.8173 3.76479C25.7131 3.64381 25.5621 3.55251 25.3868 3.50446C25.2171 3.47168 25.0419 3.46019 24.8677 3.47039H24.0411L21.8014 3.46858L15.8434 3.46274L9.65762 3.45662C8.21336 3.45523 6.7691 3.45398 5.32485 3.45287C5.17061 3.44452 5.01566 3.45139 4.86359 3.47331C4.6845 3.51154 4.52592 3.59433 4.4115 3.70931C4.29708 3.82429 4.23294 3.96532 4.22867 4.11134C4.22964 4.19962 4.27462 4.28407 4.35392 4.3465C4.43322 4.40893 4.5405 4.44434 4.65265 4.4451C4.76442 4.44339 4.87101 4.40768 4.95005 4.34545C5.0291 4.28323 5.07447 4.19932 5.07664 4.11134C5.07858 4.0902 5.06992 4.12177 5.05738 4.12441C5.0733 4.12025 5.09017 4.11882 5.10685 4.12024C5.15663 4.12358 5.20669 4.12358 5.25648 4.12024H5.6098H6.46236L8.67221 4.12233C10.5927 4.124 12.5132 4.12585 14.4336 4.12789L20.3809 4.13359C21.8267 4.13498 23.2725 4.13623 24.7184 4.13735C24.8333 4.13735 24.949 4.14069 25.0636 4.13735C25.1424 4.13512 25.1235 4.15306 25.1108 4.12149C25.1288 4.21912 25.1307 4.31817 25.1165 4.41617C25.1165 4.93878 25.1172 5.46148 25.1186 5.98427C25.1206 7.2049 25.1221 8.42557 25.123 9.64628C25.1283 9.69305 25.1266 9.74015 25.1179 9.7866C25.1203 9.77978 25.1633 9.76643 25.1347 9.7713C25.0821 9.77534 25.0292 9.77534 24.9767 9.7713H24.6411H23.8067L21.6248 9.77227L16.0117 9.77631L10.1682 9.7795L5.84405 9.78201H5.20313C5.16194 9.78003 5.12065 9.78003 5.07946 9.78201C5.06303 9.78368 5.0618 9.77825 5.05155 9.77533C5.10172 9.78924 5.06586 9.81525 5.07328 9.73779C5.09801 9.47593 5.07328 9.20517 5.07328 8.94261C5.07328 7.83176 5.07387 6.7209 5.07505 5.61005V4.11051C5.07664 3.68163 4.22867 3.6808 4.22867 4.11106Z" fill="#E2E1E3"/>
<path d="M4.22751 12.8121C4.22751 13.3722 4.18282 13.9451 4.22875 14.5038C4.23733 14.646 4.30321 14.7822 4.41683 14.8929C4.53046 15.0036 4.68592 15.0829 4.86066 15.1193C5.09311 15.1486 5.32925 15.1553 5.56377 15.1392C6.67861 15.138 7.79346 15.1368 8.9083 15.1356C9.47362 15.1356 10.2198 15.2236 10.4629 14.7014C10.5786 14.4529 10.5159 14.1335 10.5159 13.8719C10.5159 13.653 10.5159 13.4341 10.5159 13.2151C10.5159 12.9777 10.5613 12.7088 10.4057 12.4947C10.3179 12.3828 10.1923 12.2924 10.0429 12.2334C9.89352 12.1745 9.72627 12.1494 9.55983 12.161C8.99734 12.1602 8.43497 12.1592 7.87272 12.1579C7.19164 12.1565 6.51061 12.1551 5.82964 12.1538C5.56589 12.1538 5.29754 12.1417 5.03467 12.1538C4.81966 12.1636 4.61724 12.2368 4.4677 12.3588C4.31816 12.4809 4.23247 12.6427 4.22769 12.8122C4.22866 12.9005 4.27364 12.985 4.35294 13.0474C4.43224 13.1098 4.53952 13.1452 4.65167 13.146C4.76347 13.1443 4.8701 13.1087 4.94917 13.0464C5.02824 12.9842 5.07357 12.9002 5.07566 12.8122C5.07442 12.8261 5.02496 12.8104 5.1094 12.8196C5.20499 12.8245 5.30088 12.8245 5.39647 12.8196L6.0646 12.8208L7.60932 12.824L9.0544 12.8268C9.26233 12.8109 9.47176 12.8112 9.6796 12.8278C9.71193 12.8334 9.65823 12.7939 9.6683 12.8203C9.68437 12.9225 9.68437 13.0259 9.6683 13.1282C9.6683 13.5325 9.6683 13.9367 9.6683 14.3408C9.6683 14.3629 9.67271 14.4576 9.66724 14.4777C9.66335 14.4916 9.60929 14.4864 9.69091 14.4603C9.6286 14.4709 9.56448 14.4733 9.50118 14.4674H8.88039C7.91147 14.4682 6.9426 14.4692 5.9738 14.4704H5.33658C5.25773 14.4637 5.17818 14.4637 5.09933 14.4704C5.05075 14.4799 5.07371 14.4704 5.05251 14.4636C5.09668 14.4791 5.07654 14.5216 5.07442 14.4106C5.06453 13.8775 5.07442 13.3435 5.07548 12.8103C5.07566 12.3827 4.22769 12.3818 4.22751 12.8121Z" fill="#E2E1E3"/>
<path d="M11.9547 12.8121C11.9547 13.3722 11.9098 13.9451 11.9558 14.5038C11.9644 14.646 12.0303 14.7822 12.144 14.8929C12.2576 15.0036 12.4131 15.0829 12.5878 15.1193C12.8203 15.1486 13.0564 15.1553 13.291 15.1392C14.4057 15.138 15.5205 15.1368 16.6353 15.1356C17.2006 15.1356 17.9468 15.2236 18.1899 14.7014C18.3056 14.4529 18.2429 14.1335 18.2429 13.8719V13.2151C18.2429 12.9777 18.2883 12.7088 18.1327 12.4947C18.0448 12.3829 17.9191 12.2924 17.7697 12.2335C17.6204 12.1746 17.4531 12.1495 17.2867 12.161C16.7244 12.1602 16.162 12.1592 15.5995 12.1579L13.5566 12.1538C13.2927 12.1538 13.0244 12.1417 12.7617 12.1538C12.5467 12.1636 12.3443 12.2368 12.1948 12.3589C12.0453 12.4809 11.9596 12.6427 11.9549 12.8122C11.9558 12.9005 12.0008 12.985 12.0801 13.0474C12.1594 13.1098 12.2667 13.1452 12.3789 13.146C12.4906 13.1443 12.5972 13.1086 12.6763 13.0463C12.7553 12.9841 12.8007 12.9002 12.8028 12.8122C12.8014 12.8261 12.752 12.8104 12.8364 12.8196C12.932 12.8245 13.0279 12.8245 13.1235 12.8196L13.7918 12.8208L15.3365 12.824L16.7814 12.8268C16.9894 12.8109 17.1989 12.8112 17.4068 12.8278C17.4389 12.8334 17.3854 12.7939 17.3953 12.8203C17.4115 12.9225 17.4115 13.0259 17.3953 13.1282C17.3953 13.5325 17.3953 13.9367 17.3953 14.3408C17.3953 14.3629 17.3995 14.4576 17.3941 14.4777C17.3902 14.4916 17.3363 14.4864 17.4177 14.4603C17.3555 14.4709 17.2914 14.4733 17.2282 14.4674H16.6072C15.6384 14.4682 14.6695 14.4692 13.7006 14.4704H13.0636C12.9847 14.4637 12.9051 14.4637 12.8262 14.4704C12.7778 14.4799 12.8005 14.4704 12.7793 14.4636C12.8237 14.4791 12.8034 14.5216 12.8012 14.4106C12.7914 13.8775 12.8021 13.3435 12.8025 12.8103C12.8027 12.3827 11.9547 12.3818 11.9547 12.8121Z" fill="#E2E1E3"/>
<path d="M19.6817 12.8121C19.6817 13.3722 19.637 13.9451 19.6827 14.5038C19.6914 14.646 19.7573 14.7822 19.8709 14.8929C19.9846 15.0036 20.1401 15.0829 20.3148 15.1193C20.5473 15.1486 20.7834 15.1553 21.0179 15.1392C22.1329 15.138 23.2477 15.1368 24.3623 15.1356C24.9285 15.1356 25.674 15.2236 25.9169 14.7014C26.0326 14.4529 25.9699 14.1335 25.9699 13.8719C25.9699 13.653 25.9699 13.4341 25.9699 13.2151C25.9699 12.9777 26.0153 12.7088 25.8597 12.4947C25.7718 12.3828 25.6462 12.2924 25.4969 12.2334C25.3475 12.1745 25.1802 12.1494 25.0138 12.161C24.4513 12.1602 23.8889 12.1592 23.3267 12.1579C22.6456 12.1565 21.9646 12.1551 21.2836 12.1538C21.0199 12.1538 20.7515 12.1417 20.4886 12.1538C20.2737 12.1636 20.0713 12.2369 19.9218 12.3589C19.7723 12.4809 19.6866 12.6427 19.6818 12.8122C19.6828 12.9005 19.7278 12.985 19.8071 13.0474C19.8864 13.1098 19.9937 13.1452 20.1058 13.146C20.2176 13.1443 20.3243 13.1087 20.4033 13.0464C20.4824 12.9842 20.5277 12.9002 20.5298 12.8122C20.5286 12.8261 20.4791 12.8104 20.5636 12.8196C20.6591 12.8245 20.755 12.8245 20.8506 12.8196L21.5188 12.8208L23.0635 12.824L24.5086 12.8268C24.7165 12.8109 24.9259 12.8112 25.1338 12.8278C25.1661 12.8334 25.1124 12.7939 25.1224 12.8203C25.1385 12.9225 25.1385 13.0259 25.1224 13.1282C25.1224 13.5325 25.1224 13.9367 25.1224 14.3408C25.1224 14.3629 25.1269 14.4576 25.1214 14.4777C25.1175 14.4916 25.0634 14.4864 25.1451 14.4603C25.0828 14.4709 25.0186 14.4733 24.9553 14.4674H24.3344C23.3656 14.4682 22.3968 14.4692 21.428 14.4704H20.7907C20.7119 14.4637 20.6323 14.4637 20.5535 14.4704C20.5049 14.4799 20.5279 14.4704 20.5065 14.4636C20.5508 14.4791 20.5307 14.5216 20.5286 14.4106C20.5187 13.8775 20.5286 13.3435 20.5296 12.8103C20.5298 12.3827 19.6818 12.3818 19.6817 12.8121Z" fill="#E2E1E3"/>
<path d="M4.22751 16.5453C4.22751 17.1056 4.18282 17.6782 4.22875 18.2371C4.23737 18.3793 4.30326 18.5155 4.41688 18.6262C4.53051 18.7368 4.68595 18.8161 4.86066 18.8525C5.09311 18.8818 5.32925 18.8884 5.56377 18.8724C6.67861 18.8711 7.79346 18.8699 8.9083 18.8689C9.47362 18.8689 10.2198 18.9569 10.4629 18.4346C10.5786 18.1861 10.5159 17.8667 10.5159 17.6051C10.5159 17.3862 10.5159 17.1673 10.5159 16.9483C10.5159 16.7109 10.5613 16.4421 10.4057 16.2279C10.3179 16.116 10.1923 16.0255 10.0429 15.9666C9.89352 15.9077 9.72627 15.8826 9.55983 15.8942C8.99734 15.8935 8.43497 15.8925 7.87272 15.8911C7.19164 15.8897 6.51061 15.8883 5.82964 15.8869C5.56589 15.8869 5.29754 15.8748 5.03467 15.8869C4.81967 15.8968 4.61728 15.97 4.46775 16.0921C4.31822 16.2141 4.23252 16.3759 4.22769 16.5454C4.22866 16.6337 4.27364 16.7181 4.35294 16.7806C4.43224 16.843 4.53952 16.8784 4.65167 16.8792C4.76347 16.8775 4.8701 16.8418 4.94917 16.7796C5.02824 16.7174 5.07357 16.6334 5.07566 16.5454C5.07442 16.5593 5.02496 16.5437 5.1094 16.5528C5.20499 16.5577 5.30088 16.5577 5.39647 16.5528L6.0646 16.554L7.60932 16.5572C8.09101 16.5582 8.57271 16.5591 9.0544 16.56C9.26233 16.5441 9.47176 16.5444 9.6796 16.561C9.71193 16.5667 9.65823 16.5271 9.6683 16.5535C9.68437 16.6557 9.68437 16.7591 9.6683 16.8614C9.6683 17.2657 9.6683 17.6699 9.6683 18.0742C9.6683 18.0961 9.67271 18.1908 9.66724 18.2109C9.66335 18.2248 9.60929 18.2196 9.69091 18.1935C9.6286 18.2041 9.56448 18.2065 9.50118 18.2006H8.88039C7.91147 18.2014 6.9426 18.2024 5.9738 18.2036H5.33658C5.25773 18.1969 5.17818 18.1969 5.09933 18.2036C5.05075 18.2131 5.07371 18.2036 5.05251 18.1968C5.09668 18.2122 5.07654 18.2549 5.07442 18.1438C5.06453 17.6107 5.07442 17.0768 5.07548 16.5435C5.07566 16.1158 4.22769 16.1151 4.22751 16.5453Z" fill="#E2E1E3"/>
<path d="M11.9547 16.5453C11.9547 17.1056 11.9098 17.6782 11.9558 18.2371C11.9644 18.3793 12.0304 18.5155 12.144 18.6262C12.2577 18.7368 12.4131 18.8161 12.5878 18.8525C12.8203 18.8818 13.0564 18.8884 13.291 18.8724C14.4057 18.8711 15.5205 18.8699 16.6353 18.8689C17.2006 18.8689 17.9468 18.9569 18.1899 18.4346C18.3056 18.1861 18.2429 17.8667 18.2429 17.6051V16.9483C18.2429 16.7109 18.2883 16.4421 18.1327 16.2279C18.0448 16.1161 17.9191 16.0256 17.7697 15.9667C17.6204 15.9077 17.4531 15.8826 17.2867 15.8942C16.7244 15.8935 16.162 15.8925 15.5995 15.8911L13.5566 15.8869C13.2927 15.8869 13.0244 15.8748 12.7617 15.8869C12.5467 15.8968 12.3443 15.9701 12.1948 16.0921C12.0453 16.2141 11.9597 16.3759 11.9549 16.5454C11.9558 16.6337 12.0008 16.7182 12.0801 16.7806C12.1594 16.843 12.2667 16.8784 12.3789 16.8792C12.4906 16.8775 12.5972 16.8417 12.6763 16.7795C12.7553 16.7173 12.8007 16.6334 12.8028 16.5454C12.8014 16.5593 12.752 16.5437 12.8364 16.5528C12.932 16.5577 13.0279 16.5577 13.1235 16.5528L13.7918 16.554L15.3365 16.5572C15.8181 16.5582 16.2997 16.5591 16.7814 16.56C16.9894 16.5441 17.1989 16.5444 17.4068 16.561C17.4389 16.5667 17.3854 16.5271 17.3953 16.5535C17.4115 16.6557 17.4115 16.7591 17.3953 16.8614C17.3953 17.2657 17.3953 17.6699 17.3953 18.0742C17.3953 18.0961 17.3995 18.1908 17.3941 18.2109C17.3902 18.2248 17.3363 18.2196 17.4177 18.1935C17.3555 18.2041 17.2914 18.2065 17.2282 18.2006H16.6072C15.6384 18.2014 14.6695 18.2024 13.7006 18.2036H13.0636C12.9847 18.1969 12.9051 18.1969 12.8262 18.2036C12.7778 18.2131 12.8005 18.2036 12.7793 18.1968C12.8237 18.2122 12.8034 18.2549 12.8012 18.1438C12.7914 17.6107 12.8021 17.0768 12.8025 16.5435C12.8027 16.1158 11.9547 16.1151 11.9547 16.5453Z" fill="#E2E1E3"/>
<path d="M19.6817 16.5453C19.6817 17.1056 19.637 17.6782 19.6827 18.2371C19.6914 18.3793 19.7573 18.5155 19.871 18.6262C19.9846 18.7368 20.1401 18.8161 20.3148 18.8525C20.5473 18.8818 20.7834 18.8884 21.0179 18.8724C22.1329 18.8711 23.2477 18.8699 24.3623 18.8689C24.9285 18.8689 25.674 18.9569 25.9169 18.4346C26.0326 18.1861 25.9699 17.8667 25.9699 17.6051C25.9699 17.3862 25.9699 17.1673 25.9699 16.9483C25.9699 16.7109 26.0153 16.4421 25.8597 16.2279C25.7718 16.116 25.6462 16.0255 25.4969 15.9666C25.3475 15.9077 25.1802 15.8826 25.0138 15.8942C24.4513 15.8935 23.8889 15.8925 23.3267 15.8911C22.6456 15.8897 21.9646 15.8883 21.2836 15.8869C21.0199 15.8869 20.7515 15.8748 20.4886 15.8869C20.2737 15.8969 20.0713 15.9701 19.9218 16.0921C19.7723 16.2141 19.6867 16.3759 19.6818 16.5454C19.6828 16.6337 19.7278 16.7181 19.8071 16.7806C19.8864 16.843 19.9937 16.8784 20.1058 16.8792C20.2176 16.8775 20.3243 16.8418 20.4033 16.7796C20.4824 16.7174 20.5277 16.6334 20.5298 16.5454C20.5286 16.5593 20.4791 16.5437 20.5636 16.5528C20.6591 16.5577 20.755 16.5577 20.8506 16.5528L21.5188 16.554L23.0635 16.5572C23.5452 16.5582 24.0269 16.5591 24.5086 16.56C24.7165 16.5441 24.9259 16.5444 25.1338 16.561C25.1661 16.5667 25.1124 16.5271 25.1224 16.5535C25.1385 16.6557 25.1385 16.7591 25.1224 16.8614C25.1224 17.2657 25.1224 17.6699 25.1224 18.0742C25.1224 18.0961 25.1269 18.1908 25.1214 18.2109C25.1175 18.2248 25.0634 18.2196 25.1451 18.1935C25.0828 18.2041 25.0186 18.2065 24.9553 18.2006H24.3344C23.3656 18.2014 22.3968 18.2024 21.428 18.2036H20.7907C20.7119 18.1969 20.6323 18.1969 20.5535 18.2036C20.5049 18.2131 20.5279 18.2036 20.5065 18.1968C20.5508 18.2122 20.5307 18.2549 20.5286 18.1438C20.5187 17.6107 20.5286 17.0768 20.5296 16.5435C20.5298 16.1158 19.6818 16.1151 19.6817 16.5453Z" fill="#E2E1E3"/>
<path d="M4.22751 20.2581C4.22751 20.8182 4.18282 21.391 4.22875 21.9498C4.23734 22.0919 4.30323 22.2282 4.41685 22.3388C4.53048 22.4495 4.68593 22.5288 4.86066 22.5652C5.09311 22.5945 5.32924 22.6012 5.56377 22.5852C6.67861 22.5838 7.79346 22.5826 8.9083 22.5816C9.47362 22.5816 10.2198 22.6696 10.4629 22.1473C10.5786 21.8989 10.5159 21.5795 10.5159 21.3179C10.5159 21.0988 10.5159 20.8798 10.5159 20.6609C10.5159 20.4237 10.5613 20.1547 10.4057 19.9407C10.3179 19.8287 10.1923 19.7382 10.043 19.6791C9.89361 19.6201 9.72634 19.5948 9.55983 19.6063C8.99734 19.6056 8.43497 19.6046 7.87272 19.6033L5.82964 19.599C5.56589 19.599 5.29754 19.5869 5.03467 19.599C4.81964 19.6089 4.6172 19.6821 4.46765 19.8041C4.31811 19.9261 4.23243 20.088 4.22769 20.2575C4.22866 20.3458 4.27364 20.4302 4.35294 20.4927C4.43224 20.5551 4.53952 20.5905 4.65167 20.5913C4.76347 20.5896 4.8701 20.5539 4.94917 20.4917C5.02824 20.4295 5.07357 20.3455 5.07566 20.2575C5.07442 20.2714 5.02496 20.2557 5.1094 20.2649C5.20499 20.2697 5.30088 20.2697 5.39647 20.2649L6.0646 20.2661L7.60932 20.2693L9.0544 20.2721C9.26232 20.256 9.47176 20.2563 9.6796 20.2729C9.71193 20.2786 9.65823 20.2392 9.6683 20.2656C9.68438 20.3678 9.68438 20.4711 9.6683 20.5733C9.6683 20.9776 9.6683 21.3819 9.6683 21.7861C9.6683 21.8081 9.67271 21.9028 9.66724 21.923C9.66335 21.9369 9.60929 21.9316 9.69091 21.9054C9.62861 21.9161 9.56449 21.9185 9.50118 21.9127H8.88039C7.91147 21.9135 6.9426 21.9145 5.9738 21.9157L5.33658 21.9166C5.25774 21.9097 5.17817 21.9097 5.09933 21.9166C5.05075 21.926 5.07371 21.9166 5.05251 21.9097C5.09668 21.9252 5.07654 21.9677 5.07442 21.8566C5.06453 21.3236 5.07442 20.7896 5.07548 20.2564C5.07566 19.8285 4.22769 19.8278 4.22751 20.2581Z" fill="#E2E1E3"/>
<path d="M11.9547 20.2581C11.9547 20.8182 11.9098 21.391 11.9558 21.9498C11.9644 22.0919 12.0303 22.2282 12.144 22.3388C12.2576 22.4495 12.4131 22.5287 12.5878 22.5652C12.8203 22.5945 13.0564 22.6012 13.291 22.5852C14.4057 22.5838 15.5205 22.5826 16.6353 22.5816C17.2006 22.5816 17.9468 22.6696 18.1899 22.1473C18.3056 21.8989 18.2429 21.5795 18.2429 21.3179V20.6609C18.2429 20.4237 18.2883 20.1547 18.1327 19.9407C18.0449 19.8287 17.9193 19.7382 17.7699 19.6791C17.6205 19.62 17.4532 19.5948 17.2867 19.6063C16.7244 19.6056 16.162 19.6046 15.5995 19.6033L13.5566 19.599C13.2927 19.599 13.0244 19.5869 12.7617 19.599C12.5467 19.6089 12.3442 19.6821 12.1947 19.8041C12.0452 19.9261 11.9596 20.088 11.9549 20.2575C11.9558 20.3458 12.0008 20.4302 12.0801 20.4927C12.1594 20.5551 12.2667 20.5905 12.3789 20.5913C12.4906 20.5896 12.5972 20.5538 12.6763 20.4916C12.7553 20.4294 12.8007 20.3455 12.8028 20.2575C12.8014 20.2714 12.752 20.2557 12.8364 20.2649C12.932 20.2697 13.0279 20.2697 13.1235 20.2649C13.3463 20.2649 13.5691 20.2653 13.7918 20.2661L15.3365 20.2693L16.7814 20.2721C16.9894 20.256 17.1989 20.2563 17.4068 20.2729C17.4389 20.2786 17.3854 20.2392 17.3953 20.2656C17.4115 20.3678 17.4115 20.4711 17.3953 20.5733C17.3953 20.9776 17.3953 21.3819 17.3953 21.7861C17.3953 21.8081 17.3995 21.9028 17.3941 21.923C17.3902 21.9369 17.3363 21.9316 17.4177 21.9054C17.3555 21.9161 17.2914 21.9185 17.2282 21.9127H16.6072C15.6384 21.9135 14.6695 21.9145 13.7006 21.9157L13.0636 21.9166C12.9847 21.9097 12.9051 21.9097 12.8262 21.9166C12.7778 21.926 12.8005 21.9166 12.7793 21.9097C12.8237 21.9252 12.8034 21.9677 12.8012 21.8566C12.7914 21.3236 12.8021 20.7896 12.8025 20.2564C12.8027 19.8285 11.9547 19.8278 11.9547 20.2581Z" fill="#E2E1E3"/>
<path d="M11.9547 24.2293C11.9547 24.7896 11.9098 25.3623 11.9558 25.9212C11.9644 26.0633 12.0304 26.1996 12.144 26.3102C12.2577 26.4208 12.4131 26.5001 12.5878 26.5366C12.8203 26.5658 13.0564 26.5725 13.291 26.5564C14.4057 26.5552 15.5205 26.5541 16.6353 26.553C17.2006 26.553 17.9468 26.641 18.1899 26.1187C18.3056 25.8702 18.2429 25.5507 18.2429 25.2893V24.6323C18.2429 24.395 18.2883 24.1261 18.1327 23.912C18.0448 23.8001 17.9191 23.7097 17.7697 23.6507C17.6204 23.5918 17.4531 23.5667 17.2867 23.5782C16.7244 23.5775 16.162 23.5765 15.5995 23.5752L13.5566 23.571C13.2927 23.571 13.0244 23.5589 12.7617 23.571C12.5467 23.5809 12.3443 23.6541 12.1948 23.7761C12.0453 23.8981 11.9597 24.06 11.9549 24.2295C11.9558 24.3178 12.0008 24.4022 12.0801 24.4647C12.1594 24.5271 12.2667 24.5625 12.3789 24.5632C12.4906 24.5615 12.5972 24.5258 12.6763 24.4636C12.7553 24.4013 12.8007 24.3174 12.8028 24.2295C12.8014 24.2434 12.752 24.2278 12.8364 24.2368C12.932 24.2418 13.0279 24.2418 13.1235 24.2368L13.7918 24.2381L15.3365 24.2413C15.8181 24.2422 16.2997 24.2431 16.7814 24.2441C16.9894 24.2281 17.1989 24.2284 17.4068 24.245C17.4389 24.2507 17.3854 24.2111 17.3953 24.2375C17.4115 24.3398 17.4115 24.4432 17.3953 24.5454C17.3953 24.9497 17.3953 25.354 17.3953 25.7582C17.3953 25.7802 17.3995 25.8749 17.3941 25.895C17.3902 25.909 17.3363 25.9037 17.4177 25.8775C17.3555 25.8881 17.2914 25.8905 17.2282 25.8846H16.6072C15.6384 25.8855 14.6695 25.8865 13.7006 25.8877H13.0636C12.9847 25.8809 12.9051 25.8809 12.8262 25.8877C12.7778 25.8971 12.8005 25.8877 12.7793 25.8809C12.8237 25.8963 12.8034 25.939 12.8012 25.8279C12.7914 25.2947 12.8021 24.7608 12.8025 24.2275C12.8027 23.7999 11.9547 23.7992 11.9547 24.2293Z" fill="#E2E1E3"/>
<path d="M11.9547 28.016C11.9547 28.5761 11.9098 29.1489 11.9558 29.7077C11.9644 29.8498 12.0303 29.9861 12.144 30.0968C12.2576 30.2074 12.4131 30.2867 12.5878 30.3232C12.8203 30.3524 13.0564 30.3591 13.291 30.3431C14.4057 30.3417 15.5205 30.3405 16.6353 30.3395C17.2006 30.3395 17.9468 30.4275 18.1899 29.9053C18.3056 29.6568 18.2429 29.3374 18.2429 29.0758V28.419C18.2429 28.1816 18.2883 27.9126 18.1327 27.6986C18.0449 27.5866 17.9192 27.4961 17.7699 27.437C17.6205 27.378 17.4532 27.3527 17.2867 27.3642C16.7244 27.3635 16.162 27.3625 15.5995 27.3612L13.5566 27.3571C13.2927 27.3571 13.0244 27.3448 12.7617 27.3571C12.5467 27.3669 12.3442 27.4401 12.1947 27.5621C12.0452 27.6842 11.9596 27.846 11.9549 28.0155C11.9558 28.1038 12.0008 28.1883 12.0801 28.2507C12.1594 28.3131 12.2667 28.3485 12.3789 28.3493C12.4906 28.3476 12.5972 28.3119 12.6763 28.2496C12.7553 28.1874 12.8007 28.1035 12.8028 28.0155C12.8014 28.0294 12.752 28.0137 12.8364 28.0229C12.932 28.0278 13.0279 28.0278 13.1235 28.0229L13.7918 28.0242L15.3365 28.0274L16.7814 28.0301C16.9894 28.0141 17.1989 28.0144 17.4068 28.0311C17.4389 28.0367 17.3854 27.9972 17.3953 28.0236C17.4115 28.1258 17.4115 28.2292 17.3953 28.3314C17.3953 28.7356 17.3953 29.1398 17.3953 29.5441C17.3953 29.5661 17.3995 29.6608 17.3941 29.681C17.3902 29.6949 17.3363 29.6897 17.4177 29.6636C17.3555 29.6742 17.2914 29.6766 17.2282 29.6707H16.6072L13.7006 29.6738L13.0636 29.6746C12.9847 29.6678 12.9051 29.6678 12.8262 29.6746C12.7778 29.684 12.8005 29.6746 12.7793 29.6678C12.8237 29.6832 12.8034 29.7258 12.8012 29.6148C12.7914 29.0816 12.8021 28.5476 12.8025 28.0144C12.8027 27.5864 11.9547 27.5857 11.9547 28.016Z" fill="#E2E1E3"/>
<path d="M19.6817 20.2581C19.6817 20.8182 19.637 21.391 19.6827 21.9498C19.6914 22.0919 19.7573 22.2282 19.871 22.3388C19.9846 22.4495 20.1401 22.5287 20.3148 22.5652C20.5473 22.5945 20.7834 22.6012 21.0179 22.5852C22.1329 22.5838 23.2477 22.5826 24.3623 22.5816C24.9285 22.5816 25.674 22.6696 25.9169 22.1473C26.0326 21.8989 25.9699 21.5795 25.9699 21.3179C25.9699 21.0988 25.9699 20.8798 25.9699 20.6609C25.9699 20.4237 26.0153 20.1547 25.8597 19.9407C25.7719 19.8287 25.6463 19.7382 25.4969 19.6791C25.3476 19.6201 25.1803 19.5948 25.0138 19.6063C24.4513 19.6056 23.8889 19.6046 23.3267 19.6033L21.2836 19.599C21.0199 19.599 20.7515 19.5869 20.4886 19.599C20.2737 19.6089 20.0713 19.6821 19.9217 19.8041C19.7722 19.9262 19.6866 20.088 19.6818 20.2575C19.6828 20.3458 19.7278 20.4302 19.8071 20.4927C19.8864 20.5551 19.9937 20.5905 20.1058 20.5913C20.2176 20.5896 20.3243 20.5539 20.4033 20.4917C20.4824 20.4295 20.5277 20.3455 20.5298 20.2575C20.5286 20.2714 20.4791 20.2557 20.5636 20.2649C20.6591 20.2697 20.755 20.2697 20.8506 20.2649L21.5188 20.2661L23.0635 20.2693L24.5086 20.2721C24.7165 20.256 24.9259 20.2563 25.1338 20.2729C25.1661 20.2786 25.1124 20.2392 25.1224 20.2656C25.1385 20.3678 25.1385 20.4711 25.1224 20.5733C25.1224 20.9776 25.1224 21.3819 25.1224 21.7861C25.1224 21.8081 25.1269 21.9028 25.1214 21.923C25.1175 21.9369 25.0634 21.9316 25.1451 21.9054C25.0828 21.9161 25.0186 21.9185 24.9553 21.9127H24.3344C23.3656 21.9135 22.3968 21.9145 21.428 21.9157L20.7907 21.9166C20.7119 21.9097 20.6323 21.9097 20.5535 21.9166C20.5049 21.926 20.5279 21.9166 20.5065 21.9097C20.5508 21.9252 20.5307 21.9677 20.5286 21.8566C20.5187 21.3236 20.5286 20.7896 20.5296 20.2564C20.5298 19.8285 19.6818 19.8278 19.6817 20.2581Z" fill="#E2E1E3"/>
<path d="M4.22711 24.2288C4.22711 25.8883 4.22675 27.5482 4.22605 29.2084C4.20364 29.3983 4.21811 29.5897 4.26897 29.7761C4.32706 29.9092 4.43669 30.0247 4.58245 30.1063C4.72821 30.1879 4.90278 30.2314 5.08161 30.2308C5.53916 30.2432 6.00025 30.2297 6.45833 30.2292L8.2002 30.2274C8.69131 30.2274 9.1895 30.2456 9.6799 30.2261C9.86054 30.2236 10.0355 30.1762 10.1799 30.0907C10.3243 30.0052 10.4307 29.886 10.4839 29.7501C10.5215 29.597 10.5325 29.4405 10.5164 29.2851V24.7258C10.5164 24.3747 10.5932 23.9693 10.2069 23.7199C9.99077 23.5995 9.72597 23.5457 9.46279 23.5688H5.37875C5.19615 23.5584 5.01261 23.5671 4.83287 23.5945C4.66015 23.6367 4.5087 23.7207 4.39997 23.8344C4.29124 23.9482 4.23076 24.086 4.22711 24.2284C4.22807 24.3167 4.27305 24.4011 4.35236 24.4635C4.43166 24.526 4.53894 24.5614 4.65109 24.5621C4.76289 24.5605 4.86952 24.5248 4.94859 24.4626C5.02765 24.4003 5.07299 24.3164 5.07508 24.2284C5.07349 24.2456 5.03974 24.2271 5.09998 24.2363C5.1601 24.2405 5.22059 24.2405 5.28071 24.2363H9.12254C9.29424 24.2478 9.46687 24.2478 9.63857 24.2363C9.6981 24.2277 9.6739 24.2545 9.66542 24.2224C9.67968 24.3277 9.68051 24.4339 9.66789 24.5393V29.1954C9.65747 29.3077 9.65747 29.4205 9.66789 29.5329C9.67076 29.5475 9.66786 29.5624 9.65959 29.5757C9.66789 29.5601 9.70799 29.5533 9.67937 29.5583C9.58016 29.5662 9.4802 29.5662 9.38099 29.5583H8.67965L7.10066 29.5599L5.63615 29.5615C5.45737 29.5487 5.27747 29.5489 5.09875 29.5622C5.06872 29.5669 5.04063 29.5483 5.06713 29.5675C5.09362 29.5867 5.06942 29.5752 5.07384 29.5544C5.08135 29.4815 5.08135 29.4082 5.07384 29.3353C5.07384 27.7825 5.07384 26.2296 5.07384 24.6766C5.07384 24.5268 5.07384 24.3771 5.07384 24.2273C5.07508 23.7994 4.22711 23.7987 4.22711 24.2288Z" fill="#E2E1E3"/>
<path d="M19.6826 24.2288C19.6826 25.8883 19.6823 27.5482 19.6816 29.2084C19.6592 29.3983 19.6737 29.5897 19.7245 29.7761C19.7826 29.9093 19.8922 30.0247 20.038 30.1063C20.1837 30.1879 20.3583 30.2314 20.5371 30.2309C20.9947 30.2432 21.4558 30.2297 21.9138 30.2292L23.6557 30.2274C24.147 30.2274 24.645 30.2456 25.1356 30.2261C25.3162 30.2236 25.4912 30.1762 25.6355 30.0907C25.7799 30.0052 25.8862 29.886 25.9394 29.7501C25.977 29.597 25.988 29.4405 25.9719 29.2851V24.7258C25.9719 24.3747 26.0488 23.9693 25.6624 23.72C25.4463 23.5995 25.1815 23.5457 24.9183 23.5688H20.8344C20.6518 23.5584 20.4682 23.5671 20.2884 23.5945C20.1157 23.6368 19.9642 23.7207 19.8555 23.8345C19.7468 23.9482 19.6863 24.086 19.6826 24.2284C19.6836 24.3167 19.7286 24.4011 19.8079 24.4635C19.8872 24.526 19.9945 24.5614 20.1066 24.5621C20.2184 24.5605 20.325 24.5248 20.4041 24.4626C20.4832 24.4003 20.5285 24.3164 20.5306 24.2284C20.529 24.2456 20.4953 24.2271 20.5555 24.2363C20.6156 24.2405 20.6761 24.2405 20.7362 24.2363H24.5781C24.7498 24.2478 24.9224 24.2478 25.0941 24.2363C25.1536 24.2277 25.1294 24.2545 25.1211 24.2224C25.1352 24.3277 25.136 24.4339 25.1234 24.5393V29.1954C25.113 29.3077 25.113 29.4205 25.1234 29.5329C25.1263 29.5475 25.1234 29.5624 25.1151 29.5757C25.1236 29.5601 25.1635 29.5533 25.1351 29.5583C25.0359 29.5662 24.9359 29.5662 24.8367 29.5583H24.1352L22.5564 29.5599L21.0918 29.5615C20.9131 29.5487 20.7332 29.5489 20.5544 29.5622C20.5242 29.567 20.4961 29.5483 20.5228 29.5675C20.5495 29.5867 20.5249 29.5752 20.5295 29.5544C20.5369 29.4815 20.5369 29.4082 20.5295 29.3353C20.5295 27.7825 20.5299 26.2296 20.5306 24.6766V24.2273C20.5308 23.7994 19.6828 23.7987 19.6826 24.2288Z" fill="#E2E1E3"/>
</svg>
