<svg width="512" height="330" viewBox="0 0 512 330" fill="none" xmlns="http://www.w3.org/2000/svg">
<path d="M512 75.0198H0V132.568H512V75.0198Z" fill="black"/>
<path d="M479.713 0H32.2873C14.6286 0 0 15.2879 0 33.7426V52.634H512V33.7426C512 15.2879 497.371 0 479.713 0Z" fill="black"/>
<path d="M346.07 250.722H368.849L357.46 223.64L346.07 250.722Z" fill="black"/>
<path d="M0 154.626V296.257C0 314.712 14.6286 330 32.2873 330H479.713C497.371 330 512 314.712 512 296.257V154.626H0ZM178.782 200.927L153.182 288.286C152.033 292.108 148.271 294.729 143.987 294.729C139.703 294.729 135.837 292.108 134.792 288.286L109.192 200.927C107.833 196.231 110.864 191.426 115.984 190.225C121.104 189.024 126.328 191.754 127.687 196.449L143.987 252.25L160.287 196.449C161.646 191.754 166.87 189.024 171.99 190.225C177.11 191.426 180.14 196.231 178.782 200.927ZM216.189 285.993C216.189 290.797 211.905 294.729 206.681 294.729C201.456 294.729 197.172 290.797 197.172 285.993V198.633C197.172 193.829 201.456 189.897 206.681 189.897C211.905 189.897 216.189 193.829 216.189 198.633V285.993ZM265.404 294.729C256.209 294.729 247.327 291.234 241.058 285.119C237.401 281.625 237.61 276.056 241.476 272.78C245.342 269.504 251.402 269.613 254.955 273.107C257.672 275.728 261.433 277.257 265.404 277.257C273.345 277.257 279.719 271.36 279.719 264.153C279.719 256.946 273.345 251.049 265.404 251.049C247.014 251.049 231.967 237.29 231.967 220.473C231.967 203.657 247.014 189.897 265.404 189.897C274.599 189.897 283.481 193.392 289.75 199.507C293.407 203.001 293.198 208.57 289.332 211.846C285.466 215.122 279.406 215.013 275.853 211.519C273.136 208.898 269.375 207.369 265.404 207.369C257.463 207.369 251.089 213.266 251.089 220.473C251.089 227.68 257.463 233.577 265.404 233.577C283.794 233.577 298.841 247.336 298.841 264.153C298.841 281.079 283.899 294.729 265.404 294.729ZM397.061 293.527C392.15 295.275 386.612 292.981 384.731 288.504L376.163 268.193H338.756L330.188 288.504C327.784 293.746 323.082 295.275 317.858 293.527C312.947 291.89 310.439 286.757 312.32 282.28L348.473 196.122C349.936 192.737 353.489 190.553 357.355 190.553C361.326 190.553 364.878 192.737 366.237 196.122L402.39 282.28C404.375 286.757 401.972 291.89 397.061 293.527Z" fill="black"/>
</svg>
