<svg width="47" height="54" viewBox="0 0 47 54" fill="none" xmlns="http://www.w3.org/2000/svg">
<path d="M12.665 51.24C12.665 52.2679 11.7672 53.0992 10.6572 53.0992H2.72368C1.61364 53.0992 0.71582 52.2679 0.71582 51.24V38.604C0.71582 37.5762 1.61364 36.7449 2.72368 36.7449H10.6572C11.7672 36.7449 12.665 37.5762 12.665 38.604V51.24Z" fill="#E2E1E3"/>
<path d="M29.283 51.24C29.283 52.2678 28.3851 53.0991 27.2751 53.0991H19.3416C18.2316 53.0991 17.3337 52.2678 17.3337 51.24V29.4293C17.3337 28.4014 18.2316 27.5701 19.3416 27.5701H27.2751C28.3851 27.5701 29.283 28.4014 29.283 29.4293V51.24Z" fill="#E2E1E3"/>
<path d="M46.3415 51.24C46.3415 52.2679 45.4437 53.0992 44.3337 53.0992H36.4002C35.2902 53.0992 34.3923 52.2679 34.3923 51.24V20.2394C34.3923 19.2116 35.2902 18.3803 36.4002 18.3803H44.3337C45.4437 18.3803 46.3415 19.2116 46.3415 20.2394V51.24Z" fill="#E2E1E3"/>
<path d="M31.1765 6.3942C31.1765 7.57316 29.7237 8.4196 29.642 8.31379C28.5647 7.14995 26.7037 6.2884 24.8264 6.2884C22.9165 6.2884 21.7575 7.07437 21.7575 8.26845C21.7575 9.6439 23.3246 10.0067 25.5121 10.4601C28.1239 10.9891 31.5683 11.9565 31.5683 15.4178C31.5683 18.078 29.5767 19.922 26.2466 20.4057V21.4335C26.2466 22.6427 25.7406 23.2322 24.5979 23.2322H24.451C23.2593 23.2322 22.8349 22.6729 22.8349 21.4335V20.4662C19.3905 20.1185 17.4316 18.6675 17.4316 17.2013C17.4316 16.0677 18.8029 15.2515 18.9171 15.3573C19.9945 16.5665 22.1003 17.5641 24.3204 17.5641C26.3446 17.5641 27.5036 16.7781 27.5036 15.584C27.5036 14.133 25.7406 13.74 23.6674 13.2866C21.1699 12.7878 17.8561 11.8658 17.8561 8.38937C17.8561 5.86518 19.7986 4.03628 22.8676 3.52238V2.53991C22.8676 1.33072 23.3573 0.741241 24.4836 0.741241H24.6469C25.8059 0.741241 26.263 1.30049 26.263 2.53991V3.43169C29.4298 3.73399 31.1765 5.04898 31.1765 6.3942Z" fill="#E2E1E3"/>
</svg>
