<svg width="50" height="50" viewBox="0 0 50 50" fill="none" xmlns="http://www.w3.org/2000/svg">
<path d="M47.5 17.5H27.5V12.5C27.5 10.5109 28.2902 8.60322 29.6967 7.1967C31.1032 5.79018 33.0109 5 35 5C35.663 5 36.2989 4.73661 36.7678 4.26777C37.2366 3.79893 37.5 3.16304 37.5 2.5C37.5 1.83696 37.2366 1.20107 36.7678 0.732233C36.2989 0.263392 35.663 0 35 0C32.497 0.00516585 30.0532 0.76164 27.9851 2.17147C25.9169 3.5813 24.3196 5.57956 23.4 7.9075C21.2862 5.16233 18.2011 3.33117 14.7789 2.7904C11.3566 2.24963 7.85725 3.04034 5 5C5 5 9.4825 16.15 22.65 11.0275C22.5696 11.5148 22.5195 12.0065 22.5 12.5V17.5H2.5C1.83696 17.5 1.20107 17.7634 0.732233 18.2322C0.263392 18.7011 0 19.337 0 20V47.5C0 48.163 0.263392 48.7989 0.732233 49.2678C1.20107 49.7366 1.83696 50 2.5 50H47.5C48.163 50 48.7989 49.7366 49.2678 49.2678C49.7366 48.7989 50 48.163 50 47.5V20C50 19.337 49.7366 18.7011 49.2678 18.2322C48.7989 17.7634 48.163 17.5 47.5 17.5ZM5 45V37.5C6.98912 37.5 8.89678 38.2902 10.3033 39.6967C11.7098 41.1032 12.5 43.0109 12.5 45H5ZM5 30V22.5H12.5C12.5 24.4891 11.7098 26.3968 10.3033 27.8033C8.89678 29.2098 6.98912 30 5 30ZM25 37.5C24.0111 37.5 23.0444 37.2068 22.2221 36.6573C21.3999 36.1079 20.759 35.327 20.3806 34.4134C20.0022 33.4998 19.9031 32.4945 20.0961 31.5245C20.289 30.5546 20.7652 29.6637 21.4645 28.9645C22.1637 28.2652 23.0546 27.789 24.0245 27.5961C24.9945 27.4031 25.9998 27.5022 26.9134 27.8806C27.827 28.259 28.6079 28.8999 29.1573 29.7221C29.7068 30.5444 30 31.5111 30 32.5C30 33.8261 29.4732 35.0979 28.5355 36.0355C27.5979 36.9732 26.3261 37.5 25 37.5ZM45 45H37.5C37.5 43.0109 38.2902 41.1032 39.6967 39.6967C41.1032 38.2902 43.0109 37.5 45 37.5V45ZM45 30C43.0109 30 41.1032 29.2098 39.6967 27.8033C38.2902 26.3968 37.5 24.4891 37.5 22.5H45V30Z" fill="#E2E1E3"/>
</svg>
