<svg width="290" height="36" viewBox="0 0 290 36" fill="none" xmlns="http://www.w3.org/2000/svg">
<path d="M35.624 35H32.648L28.04 7.064L18.152 35L8.264 7.304L3.656 35H0.68L6.296 1.4L9.32 1.352L18.152 26.168L26.984 1.4H30.008L35.624 35ZM62.735 1.4L50.783 20.696V35H47.807V20.792L35.855 1.4H39.071L49.295 18.296L59.519 1.4H62.735ZM95.4635 3.992H82.1675V16.52H94.6955V19.112H82.1675V35H79.2875V1.4H95.4635V3.992ZM104.393 35H101.465V1.4H104.393V35ZM134.907 35H132.507L114.699 7.688V35H111.819V1.4H113.979L132.027 28.952V1.4H134.907V35ZM166.052 35H162.836L159.14 24.632H145.94L142.196 35H138.98L151.364 1.4H153.716L166.052 35ZM158.18 22.04L152.516 6.296L146.852 22.04H158.18ZM193.219 35H190.819L173.011 7.688V35H170.131V1.4H172.291L190.339 28.952V1.4H193.219V35ZM231.421 26.072C230.717 27.416 229.837 28.664 228.781 29.816C227.757 30.936 226.589 31.928 225.277 32.792C223.965 33.624 222.525 34.28 220.957 34.76C219.389 35.24 217.741 35.48 216.013 35.48C213.613 35.48 211.357 35.032 209.245 34.136C207.165 33.208 205.341 31.976 203.773 30.44C202.237 28.872 201.005 27.048 200.077 24.968C199.181 22.856 198.733 20.6 198.733 18.2C198.733 15.8 199.181 13.56 200.077 11.48C201.005 9.368 202.237 7.544 203.773 6.008C205.341 4.44 207.165 3.208 209.245 2.312C211.357 1.384 213.613 0.919998 216.013 0.919998C217.549 0.919998 219.053 1.128 220.525 1.544C221.997 1.928 223.405 2.52 224.749 3.32C226.093 4.088 227.325 5.048 228.445 6.2C229.565 7.352 230.525 8.68 231.325 10.184L228.685 11.528C228.077 10.344 227.325 9.272 226.429 8.312C225.533 7.352 224.525 6.536 223.405 5.864C222.317 5.192 221.149 4.68 219.901 4.328C218.653 3.944 217.357 3.752 216.013 3.752C214.029 3.752 212.173 4.136 210.445 4.904C208.717 5.64 207.197 6.664 205.885 7.976C204.605 9.288 203.597 10.824 202.861 12.584C202.125 14.344 201.757 16.216 201.757 18.2C201.757 20.184 202.125 22.056 202.861 23.816C203.597 25.576 204.605 27.112 205.885 28.424C207.165 29.736 208.669 30.776 210.397 31.544C212.157 32.28 214.029 32.648 216.013 32.648C217.357 32.648 218.669 32.456 219.949 32.072C221.261 31.688 222.461 31.16 223.549 30.488C224.669 29.784 225.661 28.952 226.525 27.992C227.421 27 228.157 25.912 228.733 24.728L231.421 26.072ZM240.096 35H237.168V1.4H240.096V35ZM264.61 35H247.522V1.4H264.034V3.992H250.402V16.52H263.218V19.112H250.402V32.408H264.61V35ZM289.004 25.88C289.004 27.192 288.748 28.44 288.236 29.624C287.724 30.776 287.02 31.784 286.124 32.648C285.228 33.512 284.188 34.2 283.004 34.712C281.82 35.224 280.54 35.48 279.164 35.48C278.012 35.48 276.924 35.304 275.9 34.952C274.876 34.6 273.948 34.104 273.116 33.464C272.284 32.824 271.564 32.072 270.956 31.208C270.38 30.344 269.948 29.4 269.66 28.376L272.78 28.28C273.228 29.528 274.012 30.568 275.132 31.4C276.284 32.232 277.628 32.648 279.164 32.648C280.156 32.648 281.068 32.472 281.9 32.12C282.732 31.736 283.452 31.24 284.06 30.632C284.668 30.024 285.132 29.32 285.452 28.52C285.804 27.688 285.98 26.808 285.98 25.88C285.98 24.408 285.596 23.144 284.828 22.088C284.06 21.032 282.972 20.248 281.564 19.736C281.34 19.64 281.02 19.544 280.604 19.448C280.22 19.352 279.788 19.256 279.308 19.16C278.86 19.032 278.396 18.92 277.916 18.824C277.468 18.696 277.084 18.584 276.764 18.488C274.588 17.816 272.876 16.744 271.628 15.272C270.412 13.8 269.804 11.992 269.804 9.848C269.804 8.6 270.044 7.448 270.524 6.392C271.004 5.304 271.66 4.36 272.492 3.56C273.324 2.728 274.284 2.088 275.372 1.64C276.492 1.16 277.692 0.919998 278.972 0.919998C280.924 0.919998 282.668 1.48 284.204 2.6C285.74 3.688 286.844 5.112 287.516 6.872L284.396 6.968C283.852 5.944 283.116 5.16 282.188 4.616C281.26 4.04 280.188 3.752 278.972 3.752C278.108 3.752 277.292 3.912 276.524 4.232C275.788 4.552 275.148 5 274.604 5.576C274.06 6.12 273.628 6.76 273.308 7.496C272.988 8.232 272.828 9.016 272.828 9.848C272.828 11.224 273.196 12.424 273.932 13.448C274.7 14.44 275.82 15.176 277.292 15.656C277.58 15.752 277.948 15.864 278.396 15.992C278.876 16.088 279.372 16.2 279.884 16.328C280.396 16.424 280.876 16.536 281.324 16.664C281.804 16.76 282.172 16.84 282.428 16.904C284.636 17.608 286.284 18.744 287.372 20.312C288.46 21.848 289.004 23.704 289.004 25.88Z" fill="white"/>
</svg>
