<svg width="43" height="40" viewBox="0 0 43 40" fill="none" xmlns="http://www.w3.org/2000/svg">
<path d="M32.8002 40H10.6002V14.4L24.5002 0L26.4502 1.55C26.6502 1.71667 26.8002 1.95 26.9002 2.25C27.0002 2.55 27.0502 2.91667 27.0502 3.35V3.85L24.8002 14.4H39.7502C40.5502 14.4 41.2502 14.7 41.8502 15.3C42.4502 15.9 42.7502 16.6 42.7502 17.4V21.4919C42.7502 21.7306 42.7752 21.975 42.8252 22.225C42.8752 22.475 42.8502 22.7167 42.7502 22.95L36.4502 37.45C36.1543 38.1583 35.661 38.7604 34.9704 39.2563C34.2799 39.7521 33.5565 40 32.8002 40ZM13.6002 37H33.4502L39.7502 22.05V17.4H21.1002L23.7502 4.95L13.6002 15.65V37ZM10.6002 14.4V17.4H3.9502V37H10.6002V40H0.950195V14.4H10.6002Z" fill="#9EEF41"/>
</svg>
