<svg width="60" height="60" viewBox="0 0 60 60" fill="none" xmlns="http://www.w3.org/2000/svg">
<g clip-path="url(#clip0_6_197)">
<path d="M4.40923 10.8H9.84702C10.5098 10.8 11.047 10.2627 11.047 9.59999C11.047 8.93724 10.5098 8.39999 9.84702 8.39999H4.40923C3.74647 8.39999 3.20923 8.93724 3.20923 9.59999C3.20923 10.2627 3.74647 10.8 4.40923 10.8Z" fill="#E2E1E3"/>
<path d="M11.047 15.0378V9.59999C11.047 8.93724 10.5097 8.39999 9.84697 8.39999C9.18422 8.39999 8.64697 8.93724 8.64697 9.59999V15.0378C8.64697 15.7005 9.18422 16.2378 9.84697 16.2378C10.5097 16.2378 11.047 15.7005 11.047 15.0378Z" fill="#E2E1E3"/>
<path d="M10.4491 49.4743C5.32805 44.3532 2.4 37.4308 2.4 30.0422C2.4 23.0392 5.02834 16.4502 9.68262 11.4077C10.1321 10.9207 10.1017 10.1616 9.61471 9.71202C9.12768 9.26249 8.36854 9.2929 7.919 9.77993C2.85949 15.2615 0 22.4299 0 30.0422C0 38.0738 3.18539 45.6047 8.75209 51.1714C9.22072 51.64 9.98051 51.64 10.4491 51.1714C10.9178 50.7027 10.9178 49.943 10.4491 49.4743ZM55.5544 49.1228H50.1166C49.4538 49.1228 48.9166 49.6601 48.9166 50.3228C48.9166 50.9856 49.4538 51.5228 50.1166 51.5228H55.5544C56.2171 51.5228 56.7544 50.9856 56.7544 50.3228C56.7544 49.6601 56.2171 49.1228 55.5544 49.1228Z" fill="#E2E1E3"/>
<path d="M48.9165 44.885V50.3228C48.9165 50.9856 49.4538 51.5228 50.1165 51.5228C50.7793 51.5228 51.3165 50.9856 51.3165 50.3228V44.885C51.3165 44.2223 50.7793 43.685 50.1165 43.685C49.4538 43.685 48.9165 44.2223 48.9165 44.885Z" fill="#E2E1E3"/>
<path d="M49.5143 10.4486C54.6354 15.5696 57.5635 22.4921 57.5635 29.8806C57.5635 36.8837 54.9351 43.4726 50.2809 48.5152C49.8313 49.0022 49.8617 49.7613 50.3488 50.2109C50.8358 50.6604 51.595 50.63 52.0445 50.1429C57.104 44.6614 59.9635 37.493 59.9635 29.8806C59.9635 21.8491 56.7781 14.3182 51.2114 8.7515C50.7428 8.28287 49.983 8.28287 49.5143 8.7515C49.0457 9.22013 49.0457 9.97992 49.5143 10.4486ZM44.3629 39.4652C45.3568 39.4652 46.1629 38.659 46.1629 37.6652V22.2098C46.1629 21.2156 45.357 20.4098 44.3629 20.4098H15.7237C14.7296 20.4098 13.9237 21.2156 13.9237 22.2098V37.6652C13.9237 38.659 14.7298 39.4652 15.7237 39.4652H44.3629ZM44.3629 41.8652H15.7237C13.4044 41.8652 11.5237 39.9845 11.5237 37.6652V22.2098C11.5237 19.89 13.4042 18.0098 15.7237 18.0098H44.3629C46.6824 18.0098 48.5629 19.89 48.5629 22.2098V37.6652C48.5629 39.9845 46.6822 41.8652 44.3629 41.8652Z" fill="#E2E1E3"/>
<path d="M34.3558 29.9374C34.3558 27.5555 32.425 25.6246 30.043 25.6246C27.6615 25.6246 25.7308 27.5557 25.7308 29.9374C25.7308 32.3192 27.6615 34.2502 30.043 34.2502C32.425 34.2502 34.3558 32.3193 34.3558 29.9374ZM36.7558 29.9374C36.7558 33.6448 33.7505 36.6502 30.043 36.6502C26.336 36.6502 23.3308 33.6447 23.3308 29.9374C23.3308 26.2302 26.336 23.2246 30.043 23.2246C33.7506 23.2246 36.7558 26.2301 36.7558 29.9374Z" fill="#E2E1E3"/>
</g>
<defs>
<clipPath id="clip0_6_197">
<rect width="60" height="60" fill="white"/>
</clipPath>
</defs>
</svg>
