<svg width="527" height="440" viewBox="0 0 527 440" fill="none" xmlns="http://www.w3.org/2000/svg">
<g clip-path="url(#clip0_2_64)">
<path d="M13.9539 439.029C13.9539 439.568 14.3255 440 14.7883 440H526.166C526.628 440 527 439.568 527 439.029C527 438.491 526.628 438.059 526.166 438.059H14.7883C14.3255 438.059 13.9539 438.491 13.9539 439.029Z" fill="#3F3D58"/>
<path d="M177.705 77.613H13.6944C7.43973 77.613 2.34903 71.6911 2.34903 64.4152C2.34903 57.1392 7.43973 51.2173 13.6944 51.2173H177.705C183.96 51.2173 189.05 57.1392 189.05 64.4152C189.05 71.6911 183.96 77.613 177.705 77.613ZM13.6944 52.8487C8.21105 52.8487 3.75143 58.0365 3.75143 64.4152C3.75143 70.7939 8.21105 75.9817 13.6944 75.9817H177.705C183.188 75.9817 187.648 70.7939 187.648 64.4152C187.648 58.0365 183.188 52.8487 177.705 52.8487H13.6944Z" fill="#211D24"/>
<path d="M177.705 232.064H13.6944C7.62904 232.064 2.69962 226.33 2.69962 219.274C2.69962 212.218 7.62904 206.484 13.6944 206.484H177.705C183.77 206.484 188.7 212.218 188.7 219.274C188.7 226.33 183.77 232.064 177.705 232.064Z" fill="#211D24"/>
<path d="M123.958 25.5801H10.9948C4.92943 25.5801 0 19.8458 0 12.79C0 5.73431 4.92943 0 10.9948 0H123.958C130.023 0 134.953 5.73431 134.953 12.79C134.953 19.8458 130.023 25.5801 123.958 25.5801Z" fill="#211D24"/>
<path d="M177.705 129.23H13.6944C7.43973 129.23 2.34903 123.308 2.34903 116.032C2.34903 108.756 7.43973 102.834 13.6944 102.834H177.705C183.96 102.834 189.05 108.756 189.05 116.032C189.05 123.308 183.96 129.23 177.705 129.23ZM13.6944 104.465C8.21105 104.465 3.75143 109.653 3.75143 116.032C3.75143 122.411 8.21105 127.598 13.6944 127.598H177.705C183.188 127.598 187.648 122.411 187.648 116.032C187.648 109.653 183.188 104.465 177.705 104.465H13.6944Z" fill="#211D24"/>
<path d="M177.705 180.855H13.6944C7.43973 180.855 2.34903 174.933 2.34903 167.657C2.34903 160.381 7.43973 154.459 13.6944 154.459H177.705C183.96 154.459 189.05 160.381 189.05 167.657C189.05 174.933 183.96 180.855 177.705 180.855ZM13.6944 156.091C8.21105 156.091 3.75143 161.278 3.75143 167.657C3.75143 174.036 8.21105 179.224 13.6944 179.224H177.705C183.188 179.224 187.648 174.036 187.648 167.657C187.648 161.278 183.188 156.091 177.705 156.091H13.6944Z" fill="#211D24"/>
<path d="M8.05678 41.7389H51.0403C52.064 41.7389 52.8985 42.7014 52.8985 43.9005C52.8985 45.0914 52.064 46.0621 51.0403 46.0621H8.05678C7.03303 46.0621 6.19861 45.0995 6.19861 43.9005C6.19861 42.7096 7.03303 41.7389 8.05678 41.7389Z" fill="#211D24"/>
<path d="M8.05678 94.5793H51.0403C52.064 94.5793 52.8985 95.5419 52.8985 96.7328C52.8985 97.9237 52.064 98.8944 51.0403 98.8944H8.05678C7.03303 98.8944 6.19861 97.9318 6.19861 96.7409C6.19861 95.55 7.03303 94.5793 8.05678 94.5793Z" fill="#211D24"/>
<path d="M8.05678 147.428H51.0403C52.064 147.428 52.8985 148.39 52.8985 149.59C52.8985 150.78 52.064 151.743 51.0403 151.743H8.05678C7.03303 151.743 6.19861 150.78 6.19861 149.581C6.19861 148.39 7.03303 147.428 8.05678 147.428Z" fill="#211D24"/>
<path d="M313.492 107.883L297.813 113.887V87.6296H312.041L313.492 107.883Z" fill="#9F616A"/>
<path d="M299.755 94.8975C308.384 94.8975 315.378 86.7609 315.378 76.7239C315.378 66.6869 308.384 58.5503 299.755 58.5503C291.127 58.5503 284.133 66.6869 284.133 76.7239C284.133 86.7609 291.127 94.8975 299.755 94.8975Z" fill="#9F616A"/>
<path d="M304.047 74.9212C301.431 74.8314 299.713 71.7563 298.697 68.9503C297.68 66.1443 296.635 62.9223 294.209 61.7641C292.225 60.8179 288.726 67.221 287.162 65.5162C285.528 63.738 287.12 54.6105 288.852 52.9709C290.584 51.3314 292.954 51.0133 295.184 50.8909C300.625 50.5973 306.101 51.1111 311.437 52.4081C314.74 53.2075 318.134 54.4147 320.518 57.188C323.533 60.7118 324.304 66.022 324.522 70.9895C324.746 76.0713 324.494 81.3896 322.369 85.8351C320.245 90.2806 315.799 93.5597 311.536 92.4259C311.108 89.7341 311.543 86.9689 311.711 84.2282C311.872 81.4956 311.704 78.5428 310.266 76.3649C308.836 74.187 305.765 73.3224 304.096 75.2556" fill="#2F2E43"/>
<path d="M323.267 81.2183C324.83 79.8887 326.703 78.7712 328.624 79.0486C330.699 79.3422 332.459 81.3325 332.992 83.6899C333.525 86.0472 332.929 88.6411 331.639 90.5661C330.356 92.4912 328.442 93.7636 326.422 94.3999C325.251 94.7669 323.968 94.9219 322.853 94.3673C321.212 93.5434 320.322 91.1045 320.967 89.1631" fill="#2F2E43"/>
<path d="M263.482 252.212C262.438 258.182 264.352 263.639 267.746 264.398C271.14 265.157 274.737 260.923 275.774 254.952C276.216 252.571 276.146 250.107 275.571 247.758L288.494 154.157L272.332 150.617L266.091 245.645C264.766 247.57 263.875 249.822 263.482 252.22V252.212Z" fill="#9F616A"/>
<path d="M297.645 101.839H286.615C278.818 103.218 276.7 108.055 274.926 116.995C272.219 130.633 268.762 148.79 269.45 149.059C270.551 149.484 289.329 159.761 298.9 157.412L297.645 101.839Z" fill="#E2E3E4"/>
<path d="M308.31 399.982H293.627V424.216H308.31V399.982Z" fill="#9F616A"/>
<path d="M279.33 438.883C277.787 438.883 276.413 438.842 275.375 438.728C271.476 438.312 267.753 434.959 265.881 433.001C265.039 432.121 264.773 430.718 265.207 429.51C265.523 428.646 266.147 427.993 266.925 427.74L277.233 424.314L293.922 411.214L294.111 411.606C294.181 411.753 295.822 415.187 296.369 417.503C296.579 418.384 296.523 419.118 296.207 419.689C295.99 420.081 295.682 420.309 295.436 420.44C295.738 420.807 296.684 421.557 299.601 422.096C303.857 422.879 304.755 417.748 304.79 417.536L304.818 417.365L304.944 417.267C306.971 415.75 308.219 415.056 308.647 415.203C308.913 415.293 309.362 415.456 310.575 429.429C310.694 429.869 311.543 433.083 310.968 436.158C310.344 439.503 297.778 438.352 295.261 438.091C295.191 438.1 285.781 438.883 279.337 438.883H279.33Z" fill="#2F2E43"/>
<path d="M350.12 380.942L337.661 389.981L348.685 410.544L361.144 401.505L350.12 380.942Z" fill="#9F616A"/>
<path d="M333.574 435.563C331.849 435.563 330.265 435.318 329.136 435.09C328.028 434.861 327.158 433.833 326.976 432.545C326.85 431.615 327.081 430.677 327.628 429.983L334.815 420.733L343.019 399.346L343.356 399.558C343.482 399.64 346.434 401.54 347.956 403.172C348.538 403.791 348.825 404.452 348.811 405.129C348.804 405.602 348.65 405.978 348.496 406.247C348.917 406.377 350.059 406.426 352.78 405.088C356.749 403.139 355.178 398.228 355.108 398.025L355.052 397.861L355.115 397.706C356.146 395.17 356.882 393.816 357.317 393.677C357.59 393.587 358.039 393.448 365.423 404.566C365.724 404.86 367.905 407.071 368.817 410.031C369.805 413.253 358.621 420.016 356.37 421.337C356.3 421.402 344.597 431.297 339.787 434.111C337.88 435.228 335.622 435.571 333.567 435.571L333.574 435.563Z" fill="#2F2E43"/>
<path d="M319.123 197.324H278.011L274.281 241.812L290.605 406.19H311.592L303.198 311.251L337.242 396.964L355.893 381.776L329.311 301.757C329.311 301.757 338.805 232.048 331.344 214.682C323.884 197.324 319.123 197.324 319.123 197.324Z" fill="#2F2E43"/>
<path d="M339.577 200.032H274.281L293.872 101.839H322.32L339.577 200.032Z" fill="#E2E3E4"/>
<path d="M345.453 252.212C346.497 258.182 344.583 263.639 341.189 264.398C337.796 265.157 334.198 260.923 333.161 254.952C332.719 252.571 332.789 250.107 333.364 247.758L320.441 154.157L336.603 150.617L342.844 245.645C344.169 247.57 345.06 249.822 345.453 252.22V252.212Z" fill="#9F616A"/>
<path d="M311.29 101.839H322.32C330.117 103.218 332.235 108.055 334.009 116.995C336.716 130.633 340.173 148.79 339.485 149.059C338.385 149.484 319.606 159.761 310.035 157.412L311.29 101.839Z" fill="#E2E3E4"/>
</g>
<defs>
<clipPath id="clip0_2_64">
<rect width="527" height="440" fill="white"/>
</clipPath>
</defs>
</svg>
