<svg width="189" height="186" viewBox="0 0 189 186" fill="none" xmlns="http://www.w3.org/2000/svg">
<g clip-path="url(#clip0_10_24)">
<path d="M96.191 121.419C113.133 121.419 126.868 107.902 126.868 91.2289C126.868 74.5556 113.133 61.0392 96.191 61.0392C79.2488 61.0392 65.5144 74.5556 65.5144 91.2289C65.5144 107.902 79.2488 121.419 96.191 121.419Z" fill="#FFB6B6"/>
<path d="M78.5806 125.883L77.1947 112.096L104.87 107.003L121.212 146.161L92.7911 178.326L72.5411 139.169L78.5806 125.883Z" fill="#FFB6B6"/>
<path d="M76.7501 118.997L82.8006 120.342C82.8006 120.342 78.0443 105.499 79.6587 104.082C81.2731 102.665 85.2293 104.898 85.2293 104.898L89.3866 109.485L94.4505 104.411C94.4505 104.411 99.9481 97.6837 102.101 95.7943C104.253 93.9048 100.796 86.8916 100.796 86.8916C100.796 86.8916 132.731 78.4169 120.848 63.1732C120.848 63.1732 113.881 51.2215 111.612 55.1148C109.343 59.0081 106.638 52.8247 106.638 52.8247L98.3765 54.3707C98.3765 54.3707 82.0719 44.9098 66.597 65.1495C51.1221 85.3893 76.7501 118.997 76.7501 118.997H76.7501V118.997Z" fill="#2E2D47"/>
<path d="M153.886 165.355C137.121 178.731 116.381 186 94.5 186C74.52 186 55.4886 179.938 39.5692 168.701C39.5976 168.407 39.6261 168.117 39.6509 167.827C40.0737 163.281 40.4503 158.862 40.6989 155.198C41.6617 140.972 75.3868 131.49 75.3868 131.49C75.3868 131.49 75.5396 131.64 75.8451 131.903C77.7067 133.511 85.2632 139.343 98.5145 140.972C110.331 142.426 114.221 135.528 115.397 132.224C115.752 131.217 115.858 130.543 115.858 130.543L150.546 146.664C152.809 149.845 153.694 156.698 153.868 164.4C153.875 164.718 153.882 165.033 153.886 165.355V165.355Z" fill="#6C63FF"/>
<path d="M161.321 27.2392C143.473 9.67409 119.741 0 94.5 0C69.2585 0 45.527 9.67409 27.6786 27.2392C9.83014 44.8043 0 68.1592 0 93C0 115.673 8.18883 137.109 23.1951 154.034C24.6268 155.653 26.1225 157.229 27.6786 158.761C28.0445 159.121 28.414 159.481 28.787 159.831C29.7817 160.778 30.7942 161.705 31.8245 162.603C32.4498 163.152 33.0821 163.69 33.7216 164.218C34.2225 164.634 34.7234 165.044 35.2315 165.446C35.2421 165.456 35.2492 165.463 35.2599 165.47C36.6703 166.589 38.1055 167.666 39.5692 168.701C55.4886 179.938 74.52 186 94.5 186C116.381 186 137.121 178.731 153.886 165.355C155.254 164.264 156.593 163.131 157.907 161.96C159.069 160.925 160.206 159.859 161.321 158.761C161.673 158.415 162.025 158.065 162.369 157.712C163.329 156.74 164.259 155.751 165.169 154.747C180.577 137.713 189 115.995 189 93C189 68.1592 179.17 44.8043 161.321 27.2392V27.2392ZM164.938 153.877C164.05 154.869 163.14 155.848 162.21 156.803C160.76 158.289 159.264 159.729 157.719 161.117C157.133 161.649 156.54 162.166 155.939 162.68C155.257 163.264 154.568 163.837 153.868 164.4C148.351 168.858 142.308 172.704 135.846 175.836C133.291 177.078 130.673 178.207 127.994 179.217C117.589 183.147 106.295 185.301 94.5 185.301C83.1174 185.301 72.2037 183.294 62.1035 179.623C57.9576 178.119 53.9503 176.333 50.1028 174.288C49.5379 173.987 48.9766 173.683 48.4188 173.372C45.4844 171.735 42.6458 169.949 39.9209 168.019C39.8321 167.956 39.7398 167.889 39.6509 167.827C37.7112 166.449 35.8247 164.998 34.0022 163.474C33.3344 162.918 32.6736 162.355 32.0234 161.778C30.9648 160.852 29.9274 159.897 28.9149 158.918C26.9965 157.069 25.1633 155.142 23.4119 153.139C9.26883 136.972 0.710526 115.953 0.710526 93C0.710526 42.1052 42.7844 0.699248 94.5 0.699248C146.216 0.699248 188.289 42.1052 188.289 93C188.289 116.306 179.468 137.619 164.938 153.877Z" fill="#0394FC"/>
</g>
<defs>
<clipPath id="clip0_10_24">
<rect width="189" height="186" fill="white"/>
</clipPath>
</defs>
</svg>
