<svg width="23" height="20" viewBox="0 0 23 20" fill="none" xmlns="http://www.w3.org/2000/svg">
<path d="M3.10998 0C1.40295 0 0 1.21995 0 2.70433V17.3017C0 18.78 1.40295 20 3.10998 20H19.8969C21.5971 20 23 18.78 23 17.3017V2.70433C23 1.21995 21.5971 0 19.8969 0H3.10998ZM3.10998 1.53846H19.8969C20.6433 1.53846 21.2308 2.04928 21.2308 2.70433V17.3017C21.2308 17.9507 20.6433 18.4615 19.8969 18.4615H3.10998C2.35667 18.4615 1.76923 17.9507 1.76923 17.3017V2.70433C1.76923 2.04928 2.35667 1.53846 3.10998 1.53846ZM5.30769 3.07692C4.33323 3.07692 3.53846 3.76803 3.53846 4.61538C3.53846 5.46274 4.33323 6.15385 5.30769 6.15385C6.28215 6.15385 7.07692 5.46274 7.07692 4.61538C7.07692 3.76803 6.28215 3.07692 5.30769 3.07692ZM3.53846 7.69231V16.9231H7.07692V7.69231H3.53846ZM8.84615 7.69231V16.9231H12.3846V12.8005C12.3846 11.5204 12.5228 10.3726 14.2921 10.3726C16.0337 10.3726 15.9231 11.7488 15.9231 12.8846V16.9231H19.4615V12.3678C19.4615 9.72356 18.8257 7.69231 15.3771 7.69231C13.7184 7.69231 12.8822 8.26923 12.4261 9.03846H12.3846V7.69231H8.84615Z" fill="#1C212D"/>
</svg>
