<svg width="23" height="20" viewBox="0 0 23 20" fill="none" xmlns="http://www.w3.org/2000/svg">
<path d="M11.5 0C5.14874 0 0 4.59267 0 10.2533C0 14.7842 3.29657 18.6299 7.86478 19.988C8.4384 20.0806 8.84615 19.5559 8.84615 19.1608C8.84615 18.9201 8.85306 18.6299 8.84615 17.7781C5.64633 18.3954 4.64423 16.3953 4.64423 16.3953C4.11899 15.2101 3.48317 14.8706 3.48317 14.8706C2.4396 14.2348 3.5592 14.2533 3.5592 14.2533C4.71334 14.3212 5.30769 15.2101 5.30769 15.2101C6.19231 16.5929 8.1896 16.4571 8.84615 16.1978C8.84615 15.5682 8.92218 15.1114 9.11569 14.8212C5.5012 14.2533 3.53155 12.3891 3.53846 9.8088C3.54537 8.28409 4.13281 7.09888 5.08654 6.22232C4.67188 5.75318 4.38852 4.14822 5.23858 3.16055C7.3741 3.16055 8.64573 4.53711 8.64573 4.53711C8.64573 4.53711 9.64784 4.14822 11.4931 4.14822C13.3453 4.14822 14.3404 4.51859 14.3404 4.51859C14.3404 4.51859 15.619 3.16055 17.7545 3.16055C18.6046 4.14822 18.3212 5.75318 17.9895 6.19146C18.9017 7.0495 19.4615 8.2347 19.4615 9.8088C19.4615 12.3891 17.4988 14.2533 13.8912 14.8151C14.1193 15.1237 14.1538 15.5558 14.1538 16.1978C14.1538 17.5682 14.1538 18.8213 14.1538 19.1608C14.1538 19.5559 14.5547 20.0867 15.1421 19.988C19.7103 18.6238 23 14.7842 23 10.2533C23 4.59267 17.8513 0 11.5 0Z" fill="#1C212D"/>
</svg>
