<svg width="23" height="20" viewBox="0 0 23 20" fill="none" xmlns="http://www.w3.org/2000/svg">
<path d="M10.9575 3.13802V13.9761C10.9575 14.8722 12.9989 14.8736 12.9989 13.9761V3.13802C12.9989 2.24198 10.9575 2.24059 10.9575 3.13802V3.13802ZM22.4447 6.2564C20.4033 6.90598 18.3618 7.55625 16.3204 8.20583C16.1499 8.26014 16.1571 8.4509 16.3204 8.5066C18.2934 9.17985 20.2675 9.8524 22.2406 10.5256C22.5335 10.6252 22.7928 10.3251 22.4978 10.2249C20.5247 9.55163 18.5507 8.87908 16.5776 8.20583V8.5066C18.6191 7.85702 20.6605 7.20675 22.702 6.55717C23 6.46249 22.7407 6.16241 22.4447 6.2564Z" fill="#1C212D"/>
<path d="M0.135762 10.11C1.29326 13.8515 5.68953 16.8181 11.1923 17.5624C12.115 17.687 13.0581 17.7573 13.9993 17.7587C14.6556 17.7594 14.6566 17.0632 13.9993 17.0625C8.88746 17.0583 4.16456 15.0093 2.03227 11.8332C1.62296 11.224 1.32185 10.58 1.11974 9.92481C0.983986 9.48689 5.59513e-06 9.67208 0.135762 10.11Z" fill="#1C212D"/>
</svg>
