<svg width="23" height="23" viewBox="0 0 23 23" fill="none" xmlns="http://www.w3.org/2000/svg">
<path d="M13.7546 14.885L8.11371 13.7062C8.08967 13.7522 8.0638 13.7968 8.03505 13.8388L13.1702 21.3297L13.48 21.0202L14.3537 15.5876C14.0564 15.4628 13.8329 15.2023 13.7546 14.885ZM11.6968 7.51129C11.4855 7.83547 11.1207 8.04999 10.7052 8.04999C10.6412 8.04999 10.5791 8.04355 10.518 8.03384L7.94552 12.0588L14.8183 9.10119C14.8162 9.07348 14.8101 9.0476 14.8101 9.01926C14.8101 8.96136 14.818 8.90529 14.8274 8.84998L11.6968 7.51129ZM11.8836 6.77783L15.2136 8.20168C15.319 8.11934 15.439 8.05827 15.5709 8.02125L16.1182 4.61797L14.0331 2.53288L11.686 6.20531C11.7985 6.37136 11.8682 6.56686 11.8836 6.77783ZM18.8614 7.3611L16.7716 5.27096L16.3173 8.09277C16.433 8.15137 16.5362 8.22933 16.6224 8.32496L18.8614 7.3611ZM13.8545 14.1418C14.0173 13.8475 14.3177 13.644 14.671 13.6167L15.2711 9.88387C15.2241 9.85265 15.182 9.81528 15.1407 9.77681L8.22836 12.7517C8.24596 12.8239 8.25821 12.8976 8.26396 12.9742L13.8545 14.1418ZM19.4306 7.93068L17.0127 8.97107L22.9784 11.5216L23 11.5L19.4306 7.93068ZM15.1098 15.5987L14.3831 20.1164L18.6026 15.897L15.5634 15.2623C15.4473 15.4136 15.2917 15.5307 15.1098 15.5987ZM6.90839 14.4372C6.75562 14.4372 6.60939 14.411 6.47243 14.3646L5.07086 16.5579L4.52927 16.0166L5.85683 13.9395C5.82377 13.8989 5.79358 13.8561 5.76518 13.8122L3.36021 14.8476L2.79023 14.2776L5.42269 13.1445L0.663418 12.1512L0.0125783 11.5L0.218503 11.2941L5.7066 12.4398C5.77024 12.3198 5.85108 12.2094 5.9463 12.1149L3.28258 8.22968L3.82058 7.69172L6.60364 11.7512C6.70174 11.7289 6.80346 11.7156 6.90839 11.7156C7.02587 11.7156 7.13983 11.7322 7.24868 11.7602L9.8528 7.68562C9.64867 7.47288 9.52252 7.18463 9.52252 6.8666C9.52252 6.77317 9.53436 6.68261 9.55483 6.59561L6.30602 5.20663L6.87602 4.63666L9.95411 5.95306C10.1586 5.78487 10.4203 5.68388 10.7056 5.68388C10.8404 5.68388 10.9697 5.70759 11.0908 5.74929L13.4919 1.99166L11.5002 0L0 11.5L11.5002 23L12.6319 21.8684L7.45821 14.3207C7.28968 14.3951 7.10389 14.4372 6.90839 14.4372ZM16.0032 10.0449L15.3926 13.8395C15.6029 14.0091 15.743 14.2575 15.7696 14.5414L19.2351 15.2648L22.4084 12.0916L16.6806 9.64278C16.52 9.85622 16.2799 10.0043 16.0032 10.0449Z" fill="#1C212D"/>
</svg>
