<svg width="23" height="20" viewBox="0 0 23 20" fill="none" xmlns="http://www.w3.org/2000/svg">
<path d="M11.5 0C5.16256 0 0 4.48918 0 10C0 15.5108 5.16256 20 11.5 20C17.8374 20 23 15.5108 23 10C23 4.48918 17.8374 0 11.5 0ZM11.5 1.53846C13.8083 1.53846 15.9231 2.23558 17.5886 3.40144C16.7455 4.30288 15.1905 5.55889 12.585 6.38221C11.1683 4.15865 9.98648 2.73438 9.16406 1.79087C9.91046 1.63462 10.6914 1.53846 11.5 1.53846ZM7.40865 2.33173C8.09976 3.10697 9.35066 4.5613 10.8365 6.83894C7.01472 7.71034 3.56611 7.76442 2.12861 7.72837C2.89573 5.32452 4.84465 3.35938 7.40865 2.33173ZM18.8603 4.47115C20.3323 5.95553 21.2308 7.88462 21.2308 10C21.2308 10.3185 21.21 10.625 21.1686 10.9315C20.8507 10.8954 20.6088 10.8594 20.201 10.8293C18.8326 10.7392 17.015 10.7392 15.0523 10.9916C14.5409 9.83173 13.9742 8.76202 13.3936 7.75841C16.1304 6.85096 17.8582 5.51082 18.8603 4.47115ZM11.6797 8.23317C12.2395 9.18269 12.7785 10.2043 13.2831 11.2981C10.954 11.899 8.83924 13.2692 7.21514 14.5433C6.34435 15.2163 5.63251 15.8594 5.10036 16.3642C3.0616 14.8137 1.76923 12.5421 1.76923 10C1.76923 9.7476 1.78996 9.50721 1.8107 9.26082C3.06851 9.30889 7.09766 9.33894 11.6797 8.23317ZM17.5334 12.3197C18.8948 12.2776 19.966 12.3558 20.8161 12.4399C20.1734 14.3209 18.7981 15.9195 16.9805 16.9952C16.6902 15.4147 16.2341 13.8942 15.6881 12.4639C16.3239 12.3918 16.9459 12.3438 17.5334 12.3197ZM13.9189 12.7464C14.5478 14.3269 15.0454 16.0156 15.3287 17.7825C14.1538 18.2151 12.8615 18.4615 11.5 18.4615C9.68239 18.4615 7.99609 18.0228 6.53786 17.2776C7.02854 16.8209 7.63672 16.268 8.39003 15.6851C9.95192 14.4651 11.9907 13.2212 13.9189 12.7464Z" fill="#1C212D"/>
</svg>
