<svg width="23" height="20" viewBox="0 0 23 20" fill="none" xmlns="http://www.w3.org/2000/svg">
<path d="M23 2.35795C22.1401 2.76989 21.2737 3.07528 20.3175 3.17472C21.2737 2.56392 22.0438 1.53409 22.4224 0.411933C21.4662 1.02273 20.51 1.43466 19.4576 1.64063C18.495 0.617898 17.25 0 15.9088 0C13.3225 0 11.2112 2.25852 11.2112 5.02841C11.2112 5.43324 11.2112 5.84517 11.3075 6.15767C6.36607 6.15767 2.97768 3.07528 0.680246 0C0.19894 0.717329 0.00641702 1.64063 0.00641702 2.56392C0.00641702 4.30398 0.872768 5.84517 2.11775 6.76847C1.34766 6.66903 0.583985 6.46307 0.00641702 6.15767C0.00641702 6.15767 0.00641702 6.15767 0.00641702 6.2571C0.00641702 8.72159 1.63644 10.767 3.74777 11.179C3.36272 11.2784 2.97768 11.3849 2.49637 11.3849C2.21401 11.3849 1.92522 11.3849 1.63644 11.2855C2.21401 13.3381 4.89007 15.696 6.99498 15.696C5.36496 17.0241 3.85045 18.1818 0.821429 18.1818C0.436384 18.1818 0.74442 18.1818 0 18.1818C2.10491 19.6165 4.60128 20 7.1875 20C15.9088 20 20.6063 12.3082 20.6063 5.63921C20.6063 5.43324 20.6063 5.23437 20.6063 5.02841C21.5625 4.30398 22.3326 3.38778 23 2.35795Z" fill="#1C212D"/>
</svg>
