<svg width="79" height="85" viewBox="0 0 79 85" fill="none;" xmlns="http://www.w3.org/2000/svg">
<path d="M5.17087 84.4063L0.557944 79.4649L46.6872 30.0508C45.0763 26.286 44.7102 22.3838 45.5889 18.3444C46.4675 14.305 48.5543 10.5205 51.8493 6.99097C55.1442 3.53984 59.1348 1.32405 63.8209 0.343611C68.5071 -0.636826 72.3512 0.480871 75.3532 3.6967C78.4285 6.99097 79.4719 11.1088 78.4834 16.0502C77.4949 20.9916 75.28 25.3447 71.8386 29.1096C68.8366 32.4039 65.4867 34.5609 61.789 35.5805C58.0914 36.6002 54.6317 36.3649 51.41 34.8746L44.0512 42.7573L78.3187 79.4649L73.7058 84.4063L39.4383 47.6987L5.17087 84.4063ZM18.8998 43.1103L5.82986 29.1096C2.09559 25.1094 0.155229 20.3641 0.00878653 14.8737C-0.137656 9.38324 1.54643 4.52027 5.06104 0.284785L31.9698 29.1096L18.8998 43.1103Z" fill="#FFD233"/>
</svg>
