<svg width="82" height="76" viewBox="0 0 82 76" fill="none" xmlns="http://www.w3.org/2000/svg">
<path d="M41 76C63.6437 76 82 58.9868 82 38C82 17.0132 63.6437 0 41 0C18.3563 0 0 17.0132 0 38C0 58.9868 18.3563 76 41 76Z" fill="#293035"/>
<g clip-path="url(#clip0_13_108)">
<path d="M46.997 44H35.002L35 43.377C35 42.118 35.1 41.391 36.588 41.047C38.272 40.658 39.932 40.311 39.133 38.838C36.767 34.475 38.459 32 40.999 32C43.49 32 45.225 34.383 42.865 38.839C42.09 40.303 43.691 40.651 45.41 41.048C46.9 41.392 46.999 42.12 46.999 43.381L46.997 44ZM51.808 41.786C50.518 41.488 49.318 41.227 49.899 40.129C51.668 36.787 50.368 35 48.499 35C47.234 35 46.251 35.817 46.251 37.324C46.251 41.227 48.519 39.094 48.497 44H52.998L53 43.537C53 42.591 52.926 42.044 51.808 41.786ZM29.002 44H33.503C33.482 39.094 35.749 41.228 35.749 37.324C35.749 35.817 34.766 35 33.501 35C31.632 35 30.332 36.787 32.102 40.129C32.683 41.228 31.483 41.488 30.193 41.786C29.074 42.044 29 42.591 29 43.537L29.002 44Z" fill="white"/>
</g>
<defs>
<clipPath id="clip0_13_108">
<rect width="24" height="24" fill="white" transform="translate(29 26)"/>
</clipPath>
</defs>
</svg>
