<svg width="24" height="24" viewBox="0 0 24 24" fill="none" xmlns="http://www.w3.org/2000/svg">
<g clip-path="url(#clip0_5_24)">
<path fill-rule="evenodd" clip-rule="evenodd" d="M22 10H21V8H10V21H15V22.617C15 23.141 15.121 23.675 15.502 24H10.5C10.102 24 9.721 23.842 9.439 23.561C9.158 23.279 9 22.898 9 22.5V7.5C9 7.102 9.158 6.721 9.439 6.439C9.721 6.158 10.102 6 10.5 6H20.5C20.898 6 21.279 6.158 21.561 6.439C21.842 6.721 22 7.102 22 7.5V10ZM24 12.25C24 11.56 23.44 11 22.75 11H17.25C16.56 11 16 11.56 16 12.25V22.75C16 23.44 16.56 24 17.25 24H22.75C23.44 24 24 23.44 24 22.75V12.25ZM8.593 24H2L4.599 21H8V22.804C8 23.383 8.337 23.894 8.593 24ZM20 23C19.447 23 19 22.552 19 22C19 21.448 19.447 21 20 21C20.552 21 20.999 21.448 20.999 22C20.999 22.552 20.552 23 20 23ZM23 20V13.976H17V20H23ZM21 5H19V2H2V17H8V19H0V0H21V5ZM20.5 12H19.5C19.224 12 19 12.224 19 12.5C19 12.776 19.224 13 19.5 13H20.5C20.775 13 21 12.776 21 12.5C21 12.224 20.775 12 20.5 12Z" fill="#4D4D4D"/>
</g>
<defs>
<clipPath id="clip0_5_24">
<rect width="24" height="24" fill="white"/>
</clipPath>
</defs>
</svg>
