<svg width="24" height="24" viewBox="0 0 24 24" fill="none" xmlns="http://www.w3.org/2000/svg">
<path fill-rule="evenodd" clip-rule="evenodd" d="M21.67 3.955L18.845 1.753L19.51 1L23.988 4.497L19.514 8L18.849 7.247L21.791 4.955H17.629C14.082 4.998 12.427 8.36 10.716 11.978C12.427 15.595 14.082 18.957 17.629 19H21.728L18.845 16.753L19.51 16L23.988 19.497L19.514 23L18.849 22.247L21.733 20H17.623C13.727 19.952 11.839 16.631 10.162 13.142C8.475 16.652 6.57 19.984 2.623 20H0V19H2.621C6.221 18.986 7.889 15.613 9.609 11.978C7.889 8.342 6.221 4.969 2.621 4.955H0V3.955H2.623C6.57 3.971 8.475 7.303 10.162 10.813C11.839 7.324 13.727 4.003 17.623 3.955H21.67Z" fill="white"/>
</svg>
