<svg width="24" height="24" viewBox="0 0 24 24" fill="none" xmlns="http://www.w3.org/2000/svg">
<g clip-path="url(#clip0_5_26)">
<path d="M15.526 11.409C14.474 12.251 7.58497 17.767 5.98997 19.045L3.29297 16.348L10.961 6.844L12.383 8.266L5.97797 16.204L6.13797 16.364L14.103 9.986L15.526 11.409ZM14.806 2.956C14.369 3.393 14.141 3.846 14.015 4.241L18.138 8.364C18.53 8.238 18.983 8.008 19.421 7.571C20.693 6.299 20.693 4.228 19.421 2.956C18.148 1.682 16.083 1.679 14.806 2.956ZM20.835 1.542C22.89 3.598 22.89 6.93 20.835 8.985C19.468 10.352 17.95 10.467 17.466 10.521L11.856 4.911C11.922 4.384 12.037 2.898 13.392 1.542C15.448 -0.514 18.78 -0.514 20.835 1.542ZM15.948 23.048L14.486 24C12.981 21.691 12.037 21.227 11.001 21.227C9.39897 21.227 8.69697 22.32 7.11197 23.315C5.25197 24.482 3.29197 23.874 2.31697 22.67C1.46697 21.621 1.22397 19.928 2.59597 18.513L3.72197 19.604L3.84697 19.729C3.00597 20.6 3.49997 21.36 3.67197 21.572C4.14897 22.16 5.13797 22.494 6.18397 21.838C7.66197 20.91 8.70797 19.483 11 19.483C13.179 19.482 14.554 20.908 15.948 23.048Z" fill="#4D4D4D"/>
</g>
<defs>
<clipPath id="clip0_5_26">
<rect width="24" height="24" fill="white"/>
</clipPath>
</defs>
</svg>
