<svg width="24" height="24" viewBox="0 0 24 24" fill="none" xmlns="http://www.w3.org/2000/svg">
<path d="M22 15.055V17.513C22 19.438 17.345 21 12 21C6.656 21 2 19.438 2 17.513V15.055C4.418 16.793 9.005 17.311 12 17.311C15.006 17.311 19.588 16.788 22 15.055ZM12 3C6.656 3 2 4.486 2 6.32C2 8.154 6.656 9.64 12 9.64C17.345 9.64 22 8.154 22 6.32C22 4.486 17.345 3 12 3ZM12 11.64C8.994 11.64 4.412 11.117 2 9.384V11.824C2 13.75 6.656 15.311 12 15.311C17.345 15.311 22 13.749 22 11.824V9.384C19.582 11.122 14.995 11.64 12 11.64Z" fill="#4D4D4D"/>
</svg>
