<svg xmlns="http://www.w3.org/2000/svg" width="500" height="500" style="width:100%;height:100%;transform:translate3d(0,0,0);content-visibility:visible" viewBox="0 0 500 500"><defs><clipPath id="a"><path d="M0 0h500v500H0z"/></clipPath><clipPath id="e"><path d="M0 0h500v500H0z"/></clipPath><clipPath id="d"><path d="M0 0h500v500H0z"/></clipPath><clipPath id="c"><path d="M0 0h500v500H0z"/></clipPath><clipPath id="b"><path d="M0 0h500v500H0z"/></clipPath></defs><g clip-path="url(#a)"><g clip-path="url(#b)" opacity="0" style="display:block"><g class="primary design" style="display:none"><path fill="none"/><path/></g><path fill="#FFF" d="M116.549-17.71-94.7-147.293c-13.75-8.542-31.667 1.459-31.667 17.917v258.957c0 16.25 17.917 26.25 31.667 17.708L116.341 17.915c13.333-8.333 13.333-27.5.208-35.625z" class="primary design" opacity="1" style="display:block" transform="translate(272.202 250.003)"/><path class="primary design" style="display:none"/><path class="primary design" style="display:none"/></g><g clip-path="url(#c)" style="display:block"><g class="primary design" style="display:none"><path fill="none"/><path/></g><path fill="#FFF" d="M20.833 145.833h-41.666c-11.458 0-20.834-9.375-20.834-20.833v-250c0-11.458 9.376-20.833 20.834-20.833h41.666c11.458 0 20.834 9.375 20.834 20.833v250c0 11.458-9.376 20.833-20.834 20.833z" class="primary design" style="display:block" transform="translate(333.379 250)"/><path fill="#FFF" d="M20.833 145.833h-41.666c-11.458 0-20.834-9.375-20.834-20.833v-250c0-11.458 9.376-20.833 20.834-20.833h41.666c11.458 0 20.834 9.375 20.834 20.833v250c0 11.458-9.376 20.833-20.834 20.833z" class="primary design" style="display:block" transform="translate(166.713 250)"/><path class="primary design" style="display:none"/></g><g clip-path="url(#d)" opacity="0" style="display:block"><g opacity="0" style="display:block"><path fill="#FFF" d="M190.088 417.34h-46.27c-21.391 0-38.785-16.662-38.785-37.154V121.162c0-20.492 17.394-37.154 38.785-37.154h46.27c21.391 0 38.785 16.662 38.785 37.154v259.024c0 20.492-17.394 37.154-38.785 37.154zm-46.27-302.198c-4.038 0-7.463 2.757-7.463 6.02v259.024c0 3.263 3.425 6.02 7.463 6.02h46.27c4.038 0 7.463-2.757 7.463-6.02V121.162c0-3.263-3.425-6.02-7.463-6.02h-46.27z" class="primary design" opacity="1"/></g><g opacity="0" style="display:block"><path fill="#FFF" d="M357.75 417.34h-46.534c-21.473 0-38.949-16.662-38.949-37.154V121.162c0-20.492 17.476-37.154 38.949-37.154h46.534c21.473 0 38.949 16.662 38.949 37.154v259.024c0 20.492-17.476 37.154-38.949 37.154zm-46.534-302.198c-4.058 0-7.627 2.817-7.627 6.02v259.024c0 3.203 3.569 6.02 7.627 6.02h46.534c4.058 0 7.627-2.817 7.627-6.02V121.162c0-3.203-3.569-6.02-7.627-6.02h-46.534z" class="primary design" opacity="1"/></g><path fill="#FFF" d="M20.833 145.833h-41.666c-11.458 0-20.834-9.375-20.834-20.833v-250c0-11.458 9.376-20.833 20.834-20.833h41.666c11.458 0 20.834 9.375 20.834 20.833v250c0 11.458-9.376 20.833-20.834 20.833z" class="primary design" opacity="1" style="display:block" transform="translate(333.379 250)"/><path fill="#FFF" d="M20.833 145.833h-41.666c-11.458 0-20.834-9.375-20.834-20.833v-250c0-11.458 9.376-20.833 20.834-20.833h41.666c11.458 0 20.834 9.375 20.834 20.833v250c0 11.458-9.376 20.833-20.834 20.833z" class="primary design" opacity="1" style="display:block" transform="translate(166.713 250)"/></g><g clip-path="url(#e)" opacity="0" style="display:block"><path class="primary design" style="display:none"/><path class="primary design" style="display:none"/></g><g class="com" style="display:none"><path/><path/><path/><path/><path/><path/><path/><path/><path/><path/><path/><path/></g></g></svg>