<svg xmlns="http://www.w3.org/2000/svg" width="500" height="500" style="width:100%;height:100%;transform:translate3d(0,0,0);content-visibility:visible" viewBox="0 0 500 500"><defs><clipPath id="c"><path d="M0 0h500v500H0z"/></clipPath><clipPath id="h"><path d="M0 0h500v500H0z"/></clipPath><clipPath id="g"><path d="M0 0h500v500H0z"/></clipPath><clipPath id="f"><path d="M0 0h500v500H0z"/></clipPath><clipPath id="d"><path d="M0 0h500v500H0z"/></clipPath><filter id="a" width="100%" height="100%" x="0%" y="0%" filterUnits="objectBoundingBox"><feComponentTransfer in="SourceGraphic"><feFuncA tableValues="1.0 0.0" type="table"/></feComponentTransfer></filter><path id="b" fill-opacity="0" stroke-linecap="round" stroke-linejoin="round" class="primary design" style="display:none"/><mask id="e" mask-type="alpha"><g filter="url(#a)"><path fill="#fff" d="M0 0h500v500H0z" opacity="0"/><use xmlns:ns1="http://www.w3.org/1999/xlink" ns1:href="#b"/></g></mask></defs><g clip-path="url(#c)"><g clip-path="url(#d)" style="display:block"><g fill="none" class="primary design" style="display:none"><path/><path/></g><path fill="none" class="primary design" style="display:none"/><g class="primary design" mask="url(#e)" style="display:none"><path fill="none"/><path/></g><path fill="none" class="primary design" style="display:none"/><path fill="none" class="primary design" style="display:none"/><path fill="none" class="primary design" style="display:none"/><path fill="none" class="primary design" style="display:none"/><path fill="#FFF" d="M7.99-10H-5.99C-7.1-10-8-9.1-8-7.99V7.97C-8 9.09-7.09 10-5.96 10H6.05C7.13 10 8 9.13 8 8.05V-9.99L7.99-10zM4-4h-7c-.55 0-1-.45-1-1s.45-1 1-1h7c.55 0 1 .45 1 1s-.45 1-1 1zM5.84 7.84H-5.84V6.15c0-.25.09-.48.25-.65.17-.21.44-.34.74-.34H5.84v2.68z" style="display:block" transform="translate(250 250) scale(20.83)"/></g><g fill="none" clip-path="url(#f)" opacity="0" style="display:block"><g stroke="#FFF" stroke-linecap="round" stroke-linejoin="round" stroke-width="41" class="primary design" opacity="1" style="display:block"><path d="M250.193 414.258v-291.67m.872-.464-.875.465a218.57 218.57 0 0 0-172.63-13.867l-40.857 13.867v291.67l40.869-13.871a218.574 218.574 0 0 1 172.611 13.857l.025.014.867-.461" opacity="1"/><path d="m250.183 414.245.025.014.867-.461a218.575 218.575 0 0 1 171.063-14.388l41.175 13.629v-291.67l-41.194-13.634a218.574 218.574 0 0 0-171.054 14.389l-.875.465" opacity="1"/></g><path stroke="#FFF" stroke-linecap="round" stroke-linejoin="round" stroke-width="41" d="M-106.567 158.783v.014l-.009-.461c-.155-28.795-.056-69.79-.257-96.456l-.197-9.695-.226-289.483.098 9.698c.203 22.712.426 67.136.581 94.262l-.14.465m2.149 291.656.023.014.851-.461c51.685-27.924 114.321-33.122 169.856-14.388l40.403 13.629v-291.67l-40.422-13.634c-55.533-18.73-118.165-13.534-169.847 14.389l-.858.465" class="primary design" opacity="1" style="display:block" transform="translate(356.748 255.462)"/><path class="primary design" style="display:none"/><path class="primary design" style="display:none"/></g><g clip-path="url(#g)" opacity="0" style="display:block"><path fill="#FFF" d="M7.99-10H-5.99C-7.1-10-8-9.1-8-7.99V7.97C-8 9.09-7.09 10-5.96 10H6.05C7.13 10 8 9.13 8 8.05V-9.99L7.99-10zM4-4h-7c-.55 0-1-.45-1-1s.45-1 1-1h7c.55 0 1 .45 1 1s-.45 1-1 1zM5.84 7.84H-5.84V6.15c0-.25.09-.48.25-.65.17-.21.44-.34.74-.34H5.84v2.68z" opacity="1" style="display:block" transform="translate(250 250) scale(20.83)"/></g><g clip-path="url(#h)" opacity="0" style="display:block"><path style="display:none"/><path style="display:none"/></g><path style="display:none"/></g></svg>