<svg width="196" height="38" viewBox="0 0 196 38" fill="none" xmlns="http://www.w3.org/2000/svg">
<path d="M0.210938 2.00781H7.61719C13.3516 2.00781 17.4688 3.36719 19.9688 6.08594C21.2031 7.42969 22.1406 9.21094 22.7812 11.4297C23.4219 13.6328 23.7422 16.3203 23.7422 19.4922C23.7422 25.6641 22.4844 30.125 19.9688 32.875C17.4531 35.625 13.3359 37 7.61719 37H0.210938V2.00781ZM9 30.7656C11.7188 30.7656 13.6562 29.9062 14.8125 28.1875C15.9688 26.4688 16.5469 23.5625 16.5469 19.4688C16.5469 15.4062 15.9688 12.5156 14.8125 10.7969C13.6719 9.09375 11.7344 8.24219 9 8.24219H7.125V30.7656H9ZM41.6719 37.6797C37.1562 37.6797 33.7188 36.5156 31.3594 34.1875C29.0156 31.8438 27.8438 28.4609 27.8438 24.0391C27.8438 21.2422 28.3281 18.8047 29.2969 16.7266C30.2656 14.6328 31.7109 13.0078 33.6328 11.8516C35.5703 10.6953 37.9922 10.1172 40.8984 10.1172C43.2891 10.1172 45.3594 10.6719 47.1094 11.7812C48.8594 12.8906 50.2109 14.4375 51.1641 16.4219C52.1328 18.3906 52.6172 20.6875 52.6172 23.3125V26.1016H34.8281C34.8281 30.1953 37.2188 32.2422 42 32.2422C45.1406 32.2422 48.3125 31.2969 51.5156 29.4062V35.7109C48.3281 37.0234 45.0469 37.6797 41.6719 37.6797ZM45.7031 20.9453C45.7031 19.1328 45.2578 17.7656 44.3672 16.8438C43.4766 15.9062 42.2031 15.4375 40.5469 15.4375C38.8594 15.4375 37.5391 15.9141 36.5859 16.8672C35.6328 17.8203 35.0703 19.1797 34.8984 20.9453H45.7031ZM56.7188 10.75H63.6797L69.2812 31.2344L74.9062 10.75H81.8672L73.5234 37H65.0625L56.7188 10.75ZM86.6953 1.96094H97.9688C101.891 1.96094 104.82 2.69531 106.758 4.16406C108.711 5.64844 109.688 7.85938 109.688 10.7969C109.688 13.0156 109.109 14.7734 107.953 16.0703C106.781 17.3359 105.086 18.0703 102.867 18.2734C105.539 18.5234 107.555 19.4219 108.914 20.9688C110.258 22.5 110.93 24.6484 110.93 27.4141C110.93 30.7734 109.914 33.2109 107.883 34.7266C105.852 36.2422 102.547 37 97.9688 37H86.6953V1.96094ZM97.9688 15.6016C99.7344 15.6016 100.984 15.2812 101.719 14.6406C102.078 14.3281 102.352 13.9375 102.539 13.4688C102.727 12.9844 102.82 12.3516 102.82 11.5703C102.82 10.1641 102.445 9.125 101.695 8.45312C101.367 8.17188 100.914 7.9375 100.336 7.75C99.7734 7.5625 98.9844 7.46875 97.9688 7.46875H93.375V15.6016H97.9688ZM97.9688 31.4688C100.172 31.4688 101.719 31.0938 102.609 30.3438C103.484 29.5938 103.922 28.2891 103.922 26.4297C103.922 24.5391 103.461 23.1797 102.539 22.3516C101.617 21.5234 100.094 21.1094 97.9688 21.1094H93.375V31.4688H97.9688ZM127.125 37.6797C124.641 37.6797 122.484 37.125 120.656 36.0156C118.844 34.8906 117.445 33.2969 116.461 31.2344C115.477 29.1719 114.984 26.7344 114.984 23.9219C114.984 21.1094 115.477 18.6719 116.461 16.6094C117.461 14.5312 118.875 12.9297 120.703 11.8047C122.547 10.6797 124.727 10.1172 127.242 10.1172C129.727 10.1172 131.867 10.6719 133.664 11.7812C135.461 12.875 136.844 14.4453 137.812 16.4922C138.797 18.5391 139.289 20.9688 139.289 23.7812C139.289 26.6406 138.789 29.1094 137.789 31.1875C136.805 33.2656 135.406 34.8672 133.594 35.9922C131.781 37.1172 129.625 37.6797 127.125 37.6797ZM127.148 32.1016C128.758 32.1016 130.039 31.3672 130.992 29.8984C131.945 28.4141 132.422 26.4141 132.422 23.8984C132.422 21.3672 131.945 19.3672 130.992 17.8984C130.039 16.4297 128.758 15.6953 127.148 15.6953C125.523 15.6953 124.234 16.4375 123.281 17.9219C122.328 19.3906 121.852 21.3828 121.852 23.8984C121.852 26.4141 122.328 28.4141 123.281 29.8984C124.234 31.3672 125.523 32.1016 127.148 32.1016ZM160.078 37.1875C156.828 37.1875 154.484 36.3359 153.047 34.6328C151.625 32.9141 150.914 30.1172 150.914 26.2422V5.80469H143.953V0.53125H157.781V26.2422C157.781 28.2734 158.102 29.7266 158.742 30.6016C159.398 31.4766 160.484 31.9141 162 31.9141H167.484V37.1875H160.078ZM189.914 37.0938C187.336 37.0938 185.312 36.8281 183.844 36.2969C182.375 35.7656 181.336 34.8516 180.727 33.5547C180.133 32.2578 179.836 30.4766 179.836 28.2109V16.0234H173.133V10.75H179.836V3.57812L186.703 0.53125V10.75H195.68V16.0234H186.703V28.5391C186.703 29.6953 186.992 30.5312 187.57 31.0469C188.164 31.5625 189.109 31.8203 190.406 31.8203H195.68V37.0938H189.914Z" fill="white"/>
</svg>
