<svg width="233" height="62" viewBox="0 0 233 62" fill="none" xmlns="http://www.w3.org/2000/svg">
<path d="M28.4375 33.1531H37.7812C37.5938 36.2156 36.75 38.9343 35.25 41.3093C33.7708 43.6843 31.6979 45.5385 29.0312 46.8718C26.3854 48.2052 23.1979 48.8718 19.4688 48.8718C16.5521 48.8718 13.9375 48.3718 11.625 47.3718C9.3125 46.351 7.33333 44.8927 5.6875 42.9968C4.0625 41.101 2.82292 38.8093 1.96875 36.1218C1.11458 33.4343 0.6875 30.4239 0.6875 27.0906V23.9343C0.6875 20.601 1.125 17.5906 2 14.9031C2.89583 12.1947 4.16667 9.89266 5.8125 7.99683C7.47917 6.10099 9.46875 4.64266 11.7812 3.62183C14.0938 2.60099 16.6771 2.09058 19.5312 2.09058C23.3229 2.09058 26.5208 2.77808 29.125 4.15308C31.75 5.52808 33.7812 7.42391 35.2188 9.84058C36.6771 12.2572 37.5521 15.0072 37.8438 18.0906H28.4688C28.3646 16.2572 28 14.7052 27.375 13.4343C26.75 12.1427 25.8021 11.1739 24.5312 10.5281C23.2812 9.86141 21.6146 9.52808 19.5312 9.52808C17.9688 9.52808 16.6042 9.81974 15.4375 10.4031C14.2708 10.9864 13.2917 11.8718 12.5 13.0593C11.7083 14.2468 11.1146 15.7468 10.7188 17.5593C10.3438 19.351 10.1562 21.4552 10.1562 23.8718V27.0906C10.1562 29.4447 10.3333 31.5177 10.6875 33.3093C11.0417 35.0802 11.5833 36.5802 12.3125 37.8093C13.0625 39.0177 14.0208 39.9343 15.1875 40.5593C16.375 41.1635 17.8021 41.4656 19.4688 41.4656C21.4271 41.4656 23.0417 41.1531 24.3125 40.5281C25.5833 39.9031 26.5521 38.976 27.2188 37.7468C27.9062 36.5177 28.3125 34.9864 28.4375 33.1531Z" fill="#FFD233"/>
<path d="M41.9375 31.6843V31.0281C41.9375 28.5489 42.2917 26.2677 43 24.1843C43.7083 22.0802 44.7396 20.2572 46.0938 18.7156C47.4479 17.1739 49.1146 15.976 51.0938 15.1218C53.0729 14.2468 55.3438 13.8093 57.9062 13.8093C60.4688 13.8093 62.75 14.2468 64.75 15.1218C66.75 15.976 68.4271 17.1739 69.7812 18.7156C71.1562 20.2572 72.1979 22.0802 72.9062 24.1843C73.6146 26.2677 73.9688 28.5489 73.9688 31.0281V31.6843C73.9688 34.1427 73.6146 36.4239 72.9062 38.5281C72.1979 40.6114 71.1562 42.4343 69.7812 43.9968C68.4271 45.5385 66.7604 46.7364 64.7812 47.5906C62.8021 48.4447 60.5312 48.8718 57.9688 48.8718C55.4062 48.8718 53.125 48.4447 51.125 47.5906C49.1458 46.7364 47.4688 45.5385 46.0938 43.9968C44.7396 42.4343 43.7083 40.6114 43 38.5281C42.2917 36.4239 41.9375 34.1427 41.9375 31.6843ZM50.9375 31.0281V31.6843C50.9375 33.101 51.0625 34.4239 51.3125 35.6531C51.5625 36.8822 51.9583 37.9656 52.5 38.9031C53.0625 39.8197 53.7917 40.5385 54.6875 41.0593C55.5833 41.5802 56.6771 41.8406 57.9688 41.8406C59.2188 41.8406 60.2917 41.5802 61.1875 41.0593C62.0833 40.5385 62.8021 39.8197 63.3438 38.9031C63.8854 37.9656 64.2812 36.8822 64.5312 35.6531C64.8021 34.4239 64.9375 33.101 64.9375 31.6843V31.0281C64.9375 29.6531 64.8021 28.3614 64.5312 27.1531C64.2812 25.9239 63.875 24.8406 63.3125 23.9031C62.7708 22.9447 62.0521 22.1947 61.1562 21.6531C60.2604 21.1114 59.1771 20.8406 57.9062 20.8406C56.6354 20.8406 55.5521 21.1114 54.6562 21.6531C53.7812 22.1947 53.0625 22.9447 52.5 23.9031C51.9583 24.8406 51.5625 25.9239 51.3125 27.1531C51.0625 28.3614 50.9375 29.6531 50.9375 31.0281Z" fill="#FFD233"/>
<path d="M78.0625 31.6843V31.0281C78.0625 28.5489 78.4167 26.2677 79.125 24.1843C79.8333 22.0802 80.8646 20.2572 82.2188 18.7156C83.5729 17.1739 85.2396 15.976 87.2188 15.1218C89.1979 14.2468 91.4688 13.8093 94.0312 13.8093C96.5938 13.8093 98.875 14.2468 100.875 15.1218C102.875 15.976 104.552 17.1739 105.906 18.7156C107.281 20.2572 108.323 22.0802 109.031 24.1843C109.74 26.2677 110.094 28.5489 110.094 31.0281V31.6843C110.094 34.1427 109.74 36.4239 109.031 38.5281C108.323 40.6114 107.281 42.4343 105.906 43.9968C104.552 45.5385 102.885 46.7364 100.906 47.5906C98.9271 48.4447 96.6562 48.8718 94.0938 48.8718C91.5312 48.8718 89.25 48.4447 87.25 47.5906C85.2708 46.7364 83.5938 45.5385 82.2188 43.9968C80.8646 42.4343 79.8333 40.6114 79.125 38.5281C78.4167 36.4239 78.0625 34.1427 78.0625 31.6843ZM87.0625 31.0281V31.6843C87.0625 33.101 87.1875 34.4239 87.4375 35.6531C87.6875 36.8822 88.0833 37.9656 88.625 38.9031C89.1875 39.8197 89.9167 40.5385 90.8125 41.0593C91.7083 41.5802 92.8021 41.8406 94.0938 41.8406C95.3438 41.8406 96.4167 41.5802 97.3125 41.0593C98.2083 40.5385 98.9271 39.8197 99.4688 38.9031C100.01 37.9656 100.406 36.8822 100.656 35.6531C100.927 34.4239 101.062 33.101 101.062 31.6843V31.0281C101.062 29.6531 100.927 28.3614 100.656 27.1531C100.406 25.9239 100 24.8406 99.4375 23.9031C98.8958 22.9447 98.1771 22.1947 97.2812 21.6531C96.3854 21.1114 95.3021 20.8406 94.0312 20.8406C92.7604 20.8406 91.6771 21.1114 90.7812 21.6531C89.9062 22.1947 89.1875 22.9447 88.625 23.9031C88.0833 24.8406 87.6875 25.9239 87.4375 27.1531C87.1875 28.3614 87.0625 29.6531 87.0625 31.0281Z" fill="#FFD233"/>
<path d="M124.625 0.215576V48.2468H115.625V0.215576H124.625ZM145.938 14.4343L131.25 31.1843L123.375 39.1531L120.094 32.6531L126.344 24.7156L135.125 14.4343H145.938ZM136.594 48.2468L126.594 32.6218L132.812 27.1843L146.969 48.2468H136.594Z" fill="#FFD233"/>
<path d="M159.312 14.4343V48.2468H150.281V14.4343H159.312ZM149.719 5.62183C149.719 4.30933 150.177 3.22599 151.094 2.37183C152.01 1.51766 153.24 1.09058 154.781 1.09058C156.302 1.09058 157.521 1.51766 158.438 2.37183C159.375 3.22599 159.844 4.30933 159.844 5.62183C159.844 6.93433 159.375 8.01766 158.438 8.87183C157.521 9.72599 156.302 10.1531 154.781 10.1531C153.24 10.1531 152.01 9.72599 151.094 8.87183C150.177 8.01766 149.719 6.93433 149.719 5.62183Z" fill="#FFD233"/>
<path d="M175.562 21.6531V48.2468H166.562V14.4343H175L175.562 21.6531ZM174.25 30.1531H171.812C171.812 27.6531 172.135 25.4031 172.781 23.4031C173.427 21.3822 174.333 19.6635 175.5 18.2468C176.667 16.8093 178.052 15.7156 179.656 14.9656C181.281 14.1947 183.094 13.8093 185.094 13.8093C186.677 13.8093 188.125 14.0385 189.438 14.4968C190.75 14.9552 191.875 15.6843 192.812 16.6843C193.771 17.6843 194.5 19.0072 195 20.6531C195.521 22.2989 195.781 24.3093 195.781 26.6843V48.2468H186.719V26.6531C186.719 25.1531 186.51 23.9864 186.094 23.1531C185.677 22.3197 185.062 21.7364 184.25 21.4031C183.458 21.0489 182.479 20.8718 181.312 20.8718C180.104 20.8718 179.052 21.1114 178.156 21.5906C177.281 22.0697 176.552 22.7364 175.969 23.5906C175.406 24.4239 174.979 25.4031 174.688 26.5281C174.396 27.6531 174.25 28.8614 174.25 30.1531Z" fill="#FFD233"/>
<path d="M224.031 14.4343H232.188V47.1218C232.188 50.2052 231.5 52.8197 230.125 54.9656C228.771 57.1322 226.875 58.7677 224.438 59.8718C222 60.9968 219.167 61.5593 215.938 61.5593C214.521 61.5593 213.021 61.3718 211.438 60.9968C209.875 60.6218 208.375 60.0385 206.938 59.2468C205.521 58.4552 204.333 57.4552 203.375 56.2468L207.344 50.9343C208.385 52.1427 209.594 53.0802 210.969 53.7468C212.344 54.4343 213.865 54.7781 215.531 54.7781C217.156 54.7781 218.531 54.476 219.656 53.8718C220.781 53.2885 221.646 52.4239 222.25 51.2781C222.854 50.1531 223.156 48.7885 223.156 47.1843V22.2468L224.031 14.4343ZM201.281 31.7468V31.0906C201.281 28.5072 201.594 26.1635 202.219 24.0593C202.865 21.9343 203.771 20.1114 204.938 18.5906C206.125 17.0697 207.562 15.8927 209.25 15.0593C210.938 14.226 212.844 13.8093 214.969 13.8093C217.219 13.8093 219.104 14.226 220.625 15.0593C222.146 15.8927 223.396 17.0802 224.375 18.6218C225.354 20.1427 226.115 21.9447 226.656 24.0281C227.219 26.0906 227.656 28.351 227.969 30.8093V32.2468C227.656 34.601 227.188 36.7885 226.562 38.8093C225.938 40.8302 225.115 42.601 224.094 44.1218C223.073 45.6218 221.802 46.7885 220.281 47.6218C218.781 48.4552 216.99 48.8718 214.906 48.8718C212.823 48.8718 210.938 48.4447 209.25 47.5906C207.583 46.7364 206.156 45.5385 204.969 43.9968C203.781 42.4552 202.865 40.6427 202.219 38.5593C201.594 36.476 201.281 34.2052 201.281 31.7468ZM210.281 31.0906V31.7468C210.281 33.1427 210.417 34.4447 210.688 35.6531C210.958 36.8614 211.375 37.9343 211.938 38.8718C212.521 39.7885 213.24 40.5072 214.094 41.0281C214.969 41.5281 216 41.7781 217.188 41.7781C218.833 41.7781 220.177 41.4343 221.219 40.7468C222.26 40.0385 223.042 39.0697 223.562 37.8406C224.083 36.6114 224.385 35.1947 224.469 33.5906V29.4968C224.427 28.1843 224.25 27.0072 223.938 25.9656C223.625 24.9031 223.188 23.9968 222.625 23.2468C222.062 22.4968 221.333 21.9135 220.438 21.4968C219.542 21.0802 218.479 20.8718 217.25 20.8718C216.062 20.8718 215.031 21.1427 214.156 21.6843C213.302 22.2052 212.583 22.9239 212 23.8406C211.438 24.7572 211.01 25.8406 210.719 27.0906C210.427 28.3197 210.281 29.6531 210.281 31.0906Z" fill="#FFD233"/>
</svg>
