<svg width="40" height="40" viewBox="0 0 40 40" fill="none" xmlns="http://www.w3.org/2000/svg">
<path d="M23.921 25.8873L14.1108 23.8372C14.069 23.9172 14.024 23.9948 13.974 24.0679L22.9047 37.0956L23.4435 36.5574L24.9629 27.1092C24.446 26.8923 24.0573 26.4392 23.921 25.8873ZM20.3422 13.0633C19.9747 13.6271 19.3403 14.0002 18.6178 14.0002C18.5065 14.0002 18.3984 13.989 18.2922 13.9721L13.8183 20.9722L25.771 15.8284C25.7673 15.7802 25.7567 15.7352 25.7567 15.6859C25.7567 15.5852 25.7704 15.4877 25.7867 15.3915L20.3422 13.0633ZM20.6672 11.7877L26.4585 14.264C26.6417 14.1208 26.8504 14.0146 27.0798 13.9502L28.0317 8.03138L24.4054 4.40507L20.3234 10.792C20.5191 11.0808 20.6403 11.4208 20.6672 11.7877ZM32.8024 12.8021L29.168 9.16702L28.3779 14.0746C28.5792 14.1765 28.7586 14.3121 28.9086 14.4784L32.8024 12.8021ZM24.0948 24.5948C24.3779 24.0829 24.9004 23.7291 25.5148 23.6816L26.5585 17.1896C26.4767 17.1353 26.4035 17.0703 26.3317 17.0034L14.3102 22.1772C14.3408 22.3028 14.3621 22.431 14.3721 22.5641L24.0948 24.5948ZM33.7924 13.7927L29.5873 15.6021L39.9625 20.0378L40 20.0003L33.7924 13.7927ZM26.2779 27.1285L25.0141 34.9855L32.3524 27.6473L27.0667 26.5435C26.8648 26.8067 26.5942 27.0104 26.2779 27.1285ZM12.0146 25.1085C11.7489 25.1085 11.4946 25.0629 11.2564 24.9823L8.81889 28.7967L7.877 27.8554L10.1858 24.2429C10.1283 24.1723 10.0758 24.0979 10.0264 24.0216L5.84384 25.8223L4.85258 24.831L9.43077 22.8604L1.15377 21.1328L0.0218753 20.0003L0.380006 19.6422L9.92453 21.6347C10.0352 21.426 10.1758 21.2341 10.3414 21.0697L5.70884 14.3127L6.64448 13.3771L11.4846 20.4372C11.6552 20.3984 11.8321 20.3753 12.0146 20.3753C12.2189 20.3753 12.4171 20.4041 12.6064 20.4528L17.1353 13.3665C16.7803 12.9965 16.5609 12.4952 16.5609 11.9421C16.5609 11.7796 16.5815 11.6221 16.6171 11.4708L10.967 9.05514L11.9583 8.06388L17.3115 10.3533C17.6672 10.0608 18.1222 9.88515 18.6184 9.88515C18.8528 9.88515 19.0778 9.9264 19.2884 9.99891L23.4641 3.4638L20.0003 0L0 20.0003L20.0003 40.0006L21.9685 38.0325L12.9708 24.906C12.6777 25.0354 12.3546 25.1085 12.0146 25.1085ZM27.8317 17.4696L26.7698 24.0691C27.1354 24.3641 27.3792 24.796 27.4254 25.2898L33.4524 26.5479L38.9712 21.0291L29.0098 16.7703C28.7304 17.1415 28.3129 17.399 27.8317 17.4696Z" fill="#25C7B7"/>
</svg>
