<svg width="40" height="40" viewBox="0 0 40 40" fill="none" xmlns="http://www.w3.org/2000/svg">
<path d="M20 0C8.95433 0 0 9.18533 0 20.5065C0 29.5684 5.73317 37.2599 13.6779 39.976C14.6755 40.1611 15.3846 39.1117 15.3846 38.3216C15.3846 37.8401 15.3966 37.2599 15.3846 35.5561C9.81971 36.7907 8.07692 32.7907 8.07692 32.7907C7.16346 30.4202 6.05769 29.7412 6.05769 29.7412C4.24279 28.4696 6.1899 28.5066 6.1899 28.5066C8.19712 28.6424 9.23077 30.4202 9.23077 30.4202C10.7692 33.1857 14.2428 32.9141 15.3846 32.3956C15.3846 31.1363 15.5168 30.2227 15.8534 29.6425C9.56731 28.5066 6.14183 24.7782 6.15385 19.6176C6.16586 16.5682 7.1875 14.1978 8.84615 12.4446C8.125 11.5064 7.63221 8.29643 9.11058 6.32109C12.8245 6.32109 15.0361 9.07422 15.0361 9.07422C15.0361 9.07422 16.7788 8.29643 19.988 8.29643C23.2091 8.29643 24.9399 9.03718 24.9399 9.03718C24.9399 9.03718 27.1635 6.32109 30.8774 6.32109C32.3558 8.29643 31.863 11.5064 31.2861 12.3829C32.8726 14.099 33.8462 16.4694 33.8462 19.6176C33.8462 24.7782 30.4327 28.5066 24.1587 29.6301C24.5553 30.2474 24.6154 31.1116 24.6154 32.3956C24.6154 35.1364 24.6154 37.6426 24.6154 38.3216C24.6154 39.1117 25.3125 40.1735 26.3341 39.976C34.2788 37.2475 40 29.5684 40 20.5065C40 9.18533 31.0457 0 20 0Z" fill="black"/>
</svg>
